<?xml version="1.0" encoding="utf-8"?>
<!-- Generator: Adobe Illustrator 21.1.0, SVG Export Plug-In . SVG Version: 6.00 Build 0)  -->
<svg version="1.1" id="Layer_1" xmlns="http://www.w3.org/2000/svg" xmlns:xlink="http://www.w3.org/1999/xlink" x="0px" y="0px"
	 viewBox="0 0 512 512" style="enable-background:new 0 0 512 512;" xml:space="preserve">
<style type="text/css">
	.st0{fill:#707070;}
</style>
<title>spaceship_style_5</title>
<path class="st0" d="M83.4,323.7c-1.9,3.8-4.5,7.3-7.8,10.1c-3.3,2.8-6.7,4.8-10,7.1c-3.3,2.4-6.8,4.5-10.3,6.5
	c-3.8,1.8-8,2.8-12.2,3.1l1.1-0.2c-1.2,0.1-2.5,0.1-3.8,0c-1.3,0-2.5-0.2-3.8-0.4c-8.5-1.3-16.2-5.8-21.5-12.6
	c-2.6-3.4-4.5-7.3-5.6-11.4c-0.9-4.1-1.3-8.3-1.2-12.5l0-6.4c0.1-8.3,0.1-10.7-0.3-9.8c-0.6,1.7-0.7-7.6-0.9-14.1l-0.9-53.8L6.1,207
	c-0.1-4.1,0.3-8.1,1.3-12.1c1.1-3.9,2.9-7.7,5.2-11c2-2.9,4.5-5.5,7.4-7.6c11.7-8.9,28.4-9.4,41-1.1c1.5,0.9,4.8,3.4,5.6,4
	c0.9,0.8,1.7,1.6,2.4,2.6c2.7,1.7,5.3,3.6,7.7,5.7c-0.7-0.6-1.3-1-2.6-1.8c8.9,6.3,14.1,16.6,13.9,27.5l-0.2,9.8l0.4,1.2l-0.1,15
	l-0.1-3.3c-0.3,0.2-0.6,1.9-0.8,0c-0.2-1.5-0.3-7.1-0.3-11.1c0-4.3,0-6.2-0.3-7.4c-0.2-0.9-0.1-6.7-1.1-10.4
	c-1.2-4.4-2.2-5.6-2.6-5.9s-0.4,0.3-0.8,0.2s-0.2,0.4-0.4,0.7c0.8,2.2,1.4,4.5,1.6,6.8c-0.7-3.8-2.1-7.4-4.2-10.6l0.6,0.4
	c-0.8-1.5-1.8-2.9-2.9-4.3c-1.9-2-4.1-3.8-6.5-5.2l-6.8-3.8c-2.6-1.4-1.3-0.2,1.6,2.1l5.2,3.9c1.7,1.4,3.3,3,4.7,4.7
	c3.5,4.3,5.6,9.6,6,15.1c0.2,5.8,0,12.6,0.1,18.8l-0.1,16l-0.2-25.5h-0.1l-0.1,8.5c0,5.6,0,9.7-0.3,13.2c-0.3,3.2-0.3,8.4-0.3,15.6
	c0.1,8.6,0.3,20.6-0.3,26.7c-0.2,2.3-0.6,0.4-0.9,0.4l0,24.2l-2.1-11.7l-0.1,4.9c-0.2-14.4-1.1-7.3-1.5-19.1l-0.3,11.5
	c-0.3-3.8-0.5-8.2-1-6c-0.4,1.7-0.8-5.4-1.3-7.8c-0.2-1-0.4,1-0.6,0.5c-0.5-1.3-0.7-2.6-0.6-4c-0.1-6.1-0.8-9-0.3-18.6
	c0-0.8,0-3.2,0-4.5l-0.1-23.2l0.1-11.5l0.1-5.8c0-1.1,0-2.3-0.2-3.4c-0.4-2.9-1.6-5.6-3.4-7.8c-0.9-1.2-2-2.2-3.2-3.1L58,195
	l-3.9-2.6l-2-1.3c-0.5-0.4-1.1-0.7-1.7-1c-4.4-2.7-9.8-3.3-14.7-1.5c-3.7,1.4-6.9,4-9,7.4c-1,1.7-1.7,3.5-2,5.4c-0.2,1-0.3,2-0.3,3
	l0,5.3l0.1,8.3c0.4,14.1,0.3,32.3-0.3,43.5c-0.2,4.7-0.3,13.4-0.4,20.2l0.2-0.7c0.4,2.4,0.6,4.7,0.7,7.1c0.2,7.2,0.1,14.8-0.2,22.3
	l-0.1,4.5c0,0.8-0.1,1.9,0,2.4l0.1,1.6c0.1,2.2,0.7,4.4,1.7,6.3l-1.3-0.7c3,5.8,5.2,6.8,5.1,7.4c0,0.4-1.5-0.2-2-0.2
	c4,3.4,9.2,5.3,14.4,5.1c1.9-0.1,3.8-0.5,5.6-1.1c0.9-0.3,1.8-0.7,2.7-1.2c1-0.6,2-1.2,3-1.8l13.5-8.7c2-1.7,3.7-3.8,4.8-6.2
	c1.1-2,1.9-4.2,2.4-6.4c0,1.4-0.2,2.7-0.5,4.1c1-2.3,1.3-4.2,1.6-4.8s0.6-0.1,0.5,2.3c-0.1,1.1,0.4-0.1,0.5,0.2s0.3,1.1-0.1,3.1
	c-0.9,3.5-2.7,6.8-5.3,9.4c-1,1.1-2.1,2.1-3.2,3l-3.8,3c-2.1,1.8-3.2,3-2,2.5c1.8-0.8,0.5,0.6-2.8,3.1l-2.8,2.1l-3.1,2
	c-1.1,0.6-2.5,1.1-3.8,1.7c-1.5,0.4-3,0.8-4.5,1c-7.1,0.9-14.3-1-20-5.2c-1.2-1-2.6-1.8-3.3-2.5c-2.8-2.4-5-5.5-6.4-8.9
	c-2.1-4.6-2.3-10-2.1-14.6c0-1.7,0.1-3.9,0.1-4.8c0.5-5.9,0.5-5.8,0.1-14.3l-1.4,12.9c-0.2,1.5-0.4,1.1-0.6,1.6l0-16.6l0.2-5.5
	l-0.2-68.6l-0.1-2.8c0,0.1-0.1,0.2-0.1,0.3l-0.2,54.8l0.1,16.9c0,11.1-0.2,14.3-0.9,12.9l0.4,15.9c0,3.4,0.5,6.7,1.3,10
	c4.4,15.5,20,23.8,33.3,21.5c5.3-0.9,10.4-3,14.8-6.1l11-7.4c3.4-2.4,6.3-5.5,8.5-9.1c2.3-4,3.8-8.3,4.3-12.9c0.3-2.6,0.5-3.3,0.9-2
	c0.5,1.9,0.9,3,1.2,4.7C84.5,321,82,325,83.4,323.7z M74.8,218.6c-0.1,1.7-0.4,3.1-0.4,5v17.2l0.1,10.2l-0.1,6.1l0.2,0.8l0.4-37.4
	L74.8,218.6z M11.5,199.8c0.7-3.5,2-6.8,3.7-9.9c2.4-4.3,5.8-8,9.9-10.8c-3,1.9-5.6,4.2-7.7,7.1l-0.2,0.2c0.5-0.8,1.1-1.5,1.8-2.2
	c1.1-1.3,2.3-2.5,3.7-3.5c-2.8,2-5.1,4.5-7,7.4C13.5,191.6,12.1,195.6,11.5,199.8L11.5,199.8z M45.4,160.2
	c-4.3-0.6-8.6-0.5-12.8,0.1c-12.8,2.8-23.8,11-30.1,22.6c-0.8,1.5-1.5,3-2.1,4.6c-0.6,2-0.5,2.4,0.1,1.4c1-2,2.1-4,3.4-5.9
	c4.8-7.5,11.7-13.5,19.9-17.2c5.1-2.4,10.6-3.7,16.3-3.8c5.7-0.2,11.3,0.7,16.6,2.9c2.6,1,5.1,2.3,7.5,3.8c2.3,1.4,3.6,2.4,5.4,3.6
	l5.1,3.4l2.5,1.7c0.9,0.6,2.2,1.5,3.2,2.4c7.2,6,9.5,10.6,10.9,12.2c2.7,3.5,5,7.3,6.7,11.3c0.3,0.6-0.3-3-1.4-6
	C93.8,189,88.8,182,82,176.8c-0.9-0.7-1.8-1.3-2.7-1.9l-1.9-1.2l-3.8-2.5l-7.8-5.1c-3.3-2.1-6.8-3.7-10.5-4.8
	c-1.3-0.3-0.2,0.1,2.7,1.5c1.7,0.8,0.2,0.4,0.2,0.6C54,161.4,47.9,160.4,45.4,160.2L45.4,160.2z M4.3,294.4c0-6.3-0.1-14.2,0-20.9
	c0.1-9.7-0.1-16.2-0.3-24l-0.5-37.4c-0.1-1-0.4-3.3-0.6-4.5c-0.1-0.6-0.3,0.1-0.4,1.3c-0.3,3.9-0.6,11-1,11.9
	c-0.7,1.8-0.5,12.3-0.6,19.4c-0.2,4,0,7.9,0.4,11.9c0.4,2.5,0.7,6.4,1,10.8c0.1,1.8,0.2,8.4,0.1,10.2c-0.5,11.6-0.1,23.3-0.1,32.8
	l1-6L4.3,294.4z M97.2,281.3c0,2.4,0.1,5.7,0.2,7.5C98,300,99,295,99.5,281c0.5-15,0.3-31,0.4-46.5l0-12.5l-0.2-1.4l-1.9,39.3
	l0.1,2.4l-0.5-2.4L97.2,281.3z M205.4,466.2c-24,15.2-50.8,25.8-78.7,31l1.8-0.4c-4.2,0.7-8.3,1.4-12.5,1.9
	c-7.2,0.9-14.1,1.8-21.6,1.6c-7.5-0.4-15.1-3.9-19.6-10.2c-2.3-3.2-3.6-7-3.6-10.9l0-43.3c0.1-14.7,0.1-18.9-0.3-17.2
	c-0.6,3-0.7-13.4-0.9-24.8l-0.4-36c21.1-0.2,43.2-0.3,65.2-0.5c25.8-0.2,53.1-0.4,77.8-0.5c4.8,0,11,0,16.5,0
	c22.7,0,44.4,0.4,67.9,0.1c3,0,10.4,0.1,12.1,0.3c2,0.2,4,0.4,6,0.8c4.5,0,9.8,0.1,16.1,0.1l-5.1,0.2c13.1-0.1,24.3-0.1,35.3-0.2
	c3.9,0,7.8,0,11.8,0.1l15,0.1l-14,5.4c-6.5,2.5-13,5.1-20,8.2l-1.7,1.2c-6.8,3.1-13.5,6.4-23.6,11.5c4.5-2.5,6.4-3.5,5.1-2.8
	c-0.5-0.1-3.2,0.9-0.4-0.7c2.2-1.3,11-5.9,17.4-8.9c6.9-3.2,9.9-4.4,11.8-5.6c1-0.6,5.8-2.7,10.7-4.8l4.8-2l-5.2,0.1
	c-2.2,0-4.4,0.1-6.3,0.1c-15.6,0.4-10.4,1-11.4,1.5c-0.3,0.2,0.5,0.4,0.9,0.6c1,0,5.2,0.1,12.9,0.2c-8.3,0.1-14.1,0.2-21.4,0.4
	l1.2-0.3c-3.3,0-8.3,0-9.6,0l-29.4,1.2c-10.4,0.6,12.2,1.3,29.7,1.3c10.9,0,22,0,33.2,0l-1.5-8c-10.6,4-21.1,8.7-31.3,13.7
	c-8.4,4-16.6,8.4-25.2,13c13.2-7.3,26.6-14.2,40.5-20.4l-0.1-0.1c-4.6,2-9.2,4.1-13.7,6.3l-21,10.3c-5.1,2.4-13.3,6.9-24.2,13.4
	c-13.2,7.8-30.8,19.6-40.1,25.4c-3.5,2.2-0.9-0.1-1-0.3c-10.4,7.3-20.4,14.6-34.4,26.2c5.2-5.3,9.8-9.8,15-14.7l-7,5.2
	c20.4-15.9,9.6-8.9,26.6-21.5c-6.8,4.6-11.4,7.8-16.9,11.7c5.2-4.3,11.7-9.1,8.2-7.2c-2.7,1.5,7.4-6.4,10.7-9.1c1.3-1.1-1.7,0.7-1,0
	c1.7-1.7,3.6-3.3,5.6-4.6c9.1-6.1,13-9.6,28.1-18.1l7-4.1c22.9-13.4,45.4-25,70.6-34.6l5.1,27.5c-1.7,0-3.4,0-5.1,0
	c-17.4,0-37.4-0.1-56.1-0.1c-22.1,0.1-44,0.2-66.1,0.3c-25.5,0-51.2,0-76.8,0c-4.9,0-10.7,0-14.7,0.1c-12.4,0.2-26.6,0.3-40.2,0.2
	c-6.8-0.1-13.4-0.1-19.6-0.2c-1.5,0-3,0-4.5-0.1h-2.2c-0.5,0-0.6,0-0.5,0l0,0l-0.4-0.2c-0.1,0-0.2-0.1-0.3-0.1
	c-0.1,0.2-0.1,0.5-0.1,0.7l-0.1,15.8l0.2-1.2c0.2,4,0.6,6.2,0.7,12.5c0.2,12.7,0.1,26.1-0.2,39.2l-0.2,17.5l-0.2,19.8
	c-0.1-0.1-0.2-0.2-0.4-0.3l-0.4-2v1.9c0,0.5,0,0.4,0,0.6c0,0.2,0.1,0.5,0.1,0.7c0.1,0.5,0.3,1,0.6,1.4c0.6,0.9,1.3,1.6,2.2,2.3
	c0.9,0.5,1.7,1.1,2.5,1.7c0.2,0.5-2.1-0.1-2.6,0c1.9,1,4,1.6,6.1,1.7c0.6,0,1.1,0.1,1.7,0l2.4-0.1l5-0.4c6.7-0.6,13.3-1.6,19.7-2.8
	c19.7-3.8,38.9-10,57-18.6c3.7-1.5,12.4-6.6,17.8-10c5.4-3.5,9.9-6.3,14.5-9.9c-2.5,2.1-4.9,4.3-8,6.5c10.1-6.8,15.2-10.7,6.6-3.1
	c-2,1.7,0.5,0.1,0.2,0.6s-1.5,2-5.2,4.6l-7.5,5.4c-3.4,2-7.5,4.7-12.9,7.5c-11.1,6.2-24.9,12.3-20.5,11.2c6.4-2-10.8,7-35.7,12.2
	c-6.9,1.4-13.9,2.6-20.9,3.3c-3.5,0.4-7,0.7-10.5,0.9c-3.1,0.3-6.2-0.1-9.2-0.9c-2.2-0.7-4.4-1.6-6.4-2.8c-2-1.3-3.8-3-5-5.1
	c-1.8-2.8-2.1-5.9-2-11.2c-0.1-9.7-0.2-20.4-0.2-28.2l0.1-8.4c0.5-10.3,0.5-10.1,0.1-25.2l-1.4,22.8c0,1-0.2,1.9-0.6,2.8l0-29.3
	l0.2-9.7l-0.1-37c27-0.1,54.1-0.1,81.1-0.2c1.7,0,3.3,0,4.9-0.1c-0.2-0.1-0.3-0.1-0.5-0.1c-28.7,0-57.3-0.1-86-0.1v9l0.1,29.4
	c0,19.6-0.2,25.2-0.9,22.6l0.4,28l0.1,18c0.2,7-1.1,14.3,3.1,19.6c3.8,5.4,10,8.4,16.2,9.2s12.6-0.4,18.8-1.1s12.3-2,18.3-3.3
	c9.6-2.2,19.1-4.8,28.4-7.9c14.6-5,28.5-11.6,41.6-19.7c5.2-3.1,9.3-6.2,12.8-8.5l7.9-5.9c3.9-2.8,5-3.4,3.4-1.7
	c-2.3,2.5-3.4,4-5.4,6.3C209,463.2,202.5,467.3,205.4,466.2z M355.9,356.9c-2.8,1-5.3,1.9-8.5,3.4c-9.2,4.2-18.6,8.9-27.6,13.7
	c-5.4,2.9-10.7,5.9-16,8.9l-9.5,5.4l-1.1,0.9c19.3-11.4,39.2-21.7,59.7-30.8L355.9,356.9z M186.8,362.2c8.8,0.3,27.8,0.3,46.6-0.1
	c-7.1,0-13.1,0-19.1,0h-0.4c2.9,0,5.8-0.1,14.3-0.2c-9.6-0.1-15.1-0.1-18.5-0.2C201.4,361.9,194.3,362,186.8,362.2L186.8,362.2z
	 M269.5,347.7l-15.7-0.6c-16.4,0.2-32.1,0.5-47.6,0.7l-6.2,0.2c-10.3,0.7,14.9,1.7,41.1,1.7c29,0.1,58.1,0.1,86.9,0.2
	c12.1,0,18.5,0,21.1-0.4c6.1-0.7,11.7-1.5,16.3-2.2c0.8-0.1-3.7-0.3-7.5-0.4c-19.1-0.5-41.4-0.2-62.2-0.2c-16,0-18.1,0.2-10.4,0.6
	c2.3,0.1,0.4,0.3,0.4,0.5C280.1,347.7,272.6,347.7,269.5,347.7z M66.9,413.8l0-36.9v-21.8c11.4-0.1,21.2-0.2,32.2-0.3
	c20.8-0.2,42.4-0.3,65.8-0.5c1.8-0.1,5.8-0.4,8-0.6c1-0.1-0.2-0.3-2.4-0.4c-6.8-0.3-19.3-0.6-20.9-1c-3.2-0.7-21.6-0.5-34.1-0.6
	c-10.6-0.1-16.7,0-20.9,0.4l-3.7,0.3l-5.1,0.2c-5,0.1-10.7,0.3-16.7,0.5l-4.3,0.1l0,23c-0.5,20.5-0.1,41-0.1,57.7l1-10.6L66.9,413.8
	z M270.7,430.3c-3.4,2.2-8,5.7-10.5,7.6c-7.7,5.9-9.5,7.9-7.1,6.6s9.2-5.9,19.3-12.6c21.5-14.1,45.2-28.6,69-40.5
	c6.3-3.2,12.8-6.3,19.2-9.2l2.1-1.1c-20.8,8.7-41,18.6-60.5,29.7l-3.5,2.2l3.3-2.5C290.7,417.2,280.6,423.6,270.7,430.3L270.7,430.3
	z M203.5,58.6c-23.7-14.8-50-25.1-77.6-30.1l1.8,0.2c-4.1-0.9-8.1-1.7-12.2-2.3c-6.9-0.9-14.1-1.8-20.9-1.6
	c-6.6,0.4-13.3,3.5-17.1,8.8c-1.9,2.6-3,5.8-3,9l0,43.3c-0.1,14.7-0.1,18.9,0.3,17.2c0.6-3,0.7,13.4,0.9,24.8l0.4,29.6
	c19-0.2,38.9-0.3,58.7-0.5c25.8-0.2,53.1-0.4,77.8-0.5c4.8,0,11,0,16.5,0c22.7,0,44.4,0.4,67.9,0.2c3,0,10.4,0.1,12.1,0.3
	c2,0.2,4,0.4,6,0.8c4.5,0,9.8,0.1,16.1,0.1L326,158c13.1-0.1,24.3-0.1,35.3-0.2c3.9,0,7.8,0,11.8,0.1l-1,5.5
	c-6.5-2.6-13.2-5.4-20.1-8.7l-2-0.5c-6.8-3.1-13.6-6.5-23.8-11.8c4.6,2.3,6.6,3.2,5.3,2.6c-0.2-0.5-2.6-2.1,0.4-0.8l17.8,8.4
	c6.9,3.2,10,4.4,12.1,5.1l11,4.1l0.4-1.9c-2.2,0.1-4.4,0.1-6.3,0.1c-15.6,0.4-10.4,1-11.4,1.5c-0.3,0.2,0.5,0.4,0.9,0.6l12.9,0.2
	c-8.3,0.1-14.1,0.2-21.4,0.4l1.2-0.3c-3.3,0-8.3,0-9.6,0l-29.4,1.2c-10.4,0.6,12.2,1.3,29.7,1.3c10.9,0,22,0,33.2,0.1l22.3,0
	l-20.8-8c-10.3-4-20.6-8.6-30.7-13.5c-8.2-4-16.3-8.2-24.8-13c13.1,7.1,26.4,13.8,40,19.7v-0.1c-4.5-2.1-9-4.1-13.4-6.3
	c-8.8-4.2-15.1-7.6-20.3-10.7l-23.6-13.6c-13.1-7.6-30.6-18.8-39.1-25.4c-3.2-2.5-0.2-0.8,0-1.1c-10.1-7.1-20-14.3-33.5-25.5
	c6,4,11.2,7.3,17.1,10.9l-6.5-5.1c20,15,10.6,6.8,27.4,18.4c-6.4-4.7-10.7-7.8-15.9-11.8c5.4,3.7,11.8,7.9,9,5.4
	c-2.2-2,8.1,4.8,11.7,6.6c1.4,0.8-1.2-1.3-0.3-0.9c2.1,0.9,4.2,2,6.1,3.3c8.9,5.7,13.3,7.8,27.3,16.8c1.2,0.8,4.7,2.8,6.7,4
	c22.1,12.4,43.7,23.7,66.4,32.7l70.6,28.2l-75.7-0.8c-1.7,0-3.4,0-5.1,0c-17.5,0-37.4-0.1-56.1-0.1c-22.1,0.1-44,0.2-66.1,0.2
	c-25.5,0-51.2,0-76.8,0c-4.9,0-10.7,0.1-14.7,0.1c-12.4,0.2-26.6,0.3-40.2,0.2c-17-0.2-33.2-0.4-45.6-0.5l-9.9-0.1l0.3-44.4
	l-0.2,1.2c-0.2-4-0.6-6.2-0.7-12.6c-0.2-12.7-0.1-26.1,0.2-39.2l0.3-17.5l0.1-10.5v-5.4c0-1.9-0.1-3,0.2-6.9c0,1.1,0.1,2.3,0.2,3.4
	l0.4,2v-1.9l0.2-3c0.2-2,0.6-3.9,1.1-5.8c0.9-3.2,2.4-6.1,4.3-8.8c2.5-3.6,5.8-6.7,9.5-9c5.5-3.3,8-3.6,8.6-3.7
	c1.1-0.2-4.9,2.7-5.7,3.7c4.8-2.6,10.1-4.2,15.5-4.6c1.3-0.1,2.6-0.2,3.9-0.1l3.1,0.1l5.8,0.4c7.4,0.6,14.8,1.6,22,3
	c22.3,4.1,45.3,12,62.7,21.5c4,1.9,13.8,7.3,19.8,11.2c5.5,3.6,10.7,7.5,15.7,11.6c-3-2.1-5.8-4.3-9.5-6.4
	c10.9,8.2,15.8,13.1,5.6,5.7c-2.4-1.7,0.1,0.5-0.5,0.3c-0.8-0.3-2.3-1.3-6.5-3.8l-8.4-5.3c-3.7-2-8.2-4.8-14-7.8
	c-12.1-6.5-27.5-10.9-23.2-8.8c6.1,3.5-12.4-4.5-38.1-9.9c-7.1-1.5-14.3-2.7-21.6-3.5c-3.6-0.4-7.3-0.7-11-0.9
	c-4-0.3-8.1,0.2-12,1.3c-3.1,1-6,2.5-8.5,4.6c-2.7,2.1-4.9,4.8-6.5,7.8c-1.2,2.2-2,4.6-2.3,7.1c-0.2,2.5-0.2,5-0.1,7.5
	c0.1,9.7,0.2,20.4,0.2,28.2l-0.1,8.4C69,94.2,69,94,69.5,109l1.4-22.8c0-1,0.2-1.9,0.6-2.8l0,29.2l-0.2,9.7l0.1,39.7
	c27.9-0.1,55.9-0.1,83.8-0.2l4.9-0.1c-0.2-0.1-0.3-0.1-0.5-0.1c-29.2,0-58.5-0.1-87.7-0.1v-10.1l-0.1-30c0-19.6,0.2-25.2,0.9-22.7
	l-0.4-28l-0.1-18V42.4c0.1-3.5,1.2-7,3.2-9.9c3.9-5.8,10.5-9.1,17-10c6.7-0.7,12.9,0.1,19.2,0.7c6.3,0.5,12.4,1.7,18.6,2.8
	c9.7,2,19.3,4.6,28.7,7.7c14.8,5,29,11.6,42.4,19.6c5.3,3.1,9.5,6.2,13,8.5c3.4,2.6,6,4.7,7.9,6.2c3.8,3.1,4.5,4,2.5,2.9
	c-3-1.7-4.8-2.4-7.4-3.7C208,60.3,201.2,56.6,203.5,58.6z M364.1,145.8l-7.7-3.9c-8.8-4-17.8-8.5-26.5-13.1
	c-5.2-2.7-10.4-5.5-15.5-8.4l-9.1-5.4l-1.3-0.5c18.5,11.2,37.5,21.2,57.2,30.2L364.1,145.8z M186.8,161.8c8.8,0.3,27.8,0.3,46.5-0.1
	c-7.1,0-13.1,0-19.1,0h-0.4c2.9,0,5.8-0.1,14.3-0.2c-9.6-0.1-15.1-0.1-18.5-0.1C201.4,161.6,194.3,161.7,186.8,161.8L186.8,161.8z
	 M269.5,147.4l-15.7-0.6c-16.4,0.2-32.1,0.4-47.6,0.7l-6.2,0.2c-10.3,0.7,14.9,1.7,41.1,1.7c29,0.1,58.1,0.1,86.9,0.2
	c12.1,0.1,18.5,0,21.1-0.4c6.1-0.7,11.7-1.5,16.3-2.2c0.8-0.1-3.7-0.3-7.5-0.4c-19.1-0.5-41.4-0.2-62.2-0.2c-16,0-18.1,0.2-10.4,0.6
	c2.3,0.1,0.4,0.3,0.4,0.5C280.1,147.4,272.6,147.4,269.5,147.4L269.5,147.4z M78.5,108l0,36.9v10.1c7.3-0.1,13.5-0.2,20.6-0.3
	c20.8-0.2,42.4-0.3,65.8-0.5c1.8-0.1,5.8-0.4,8-0.6c1-0.1-0.2-0.3-2.4-0.4c-6.8-0.3-19.3-0.6-20.9-1c-3.2-0.7-21.6-0.5-34.1-0.6
	c-10.6-0.1-16.7,0.1-20.9,0.4l-7.7,0.5l-5,0.5c-0.3,0-0.7,0-1.4,0.1c-0.1-2.1-0.1-5.6,0-7.2c0.5-20.5,0.1-41,0.1-57.7l-1,10.7
	L78.5,108z M257.1,111.3l-11.1-7.6c-8.4-5.7-10.9-7.1-8.8-5.1s8.8,7.5,19.1,14.9c22,15.7,46.9,30.3,71.8,43
	c6.6,3.4,13.5,6.7,20.4,9.8l2.4,0.9c-21.3-10.3-41.9-21.8-61.8-34.6l-3.8-2.2l3.9,1.9C277.7,125.2,267.4,118.5,257.1,111.3
	L257.1,111.3z M70.9,322.8l-0.2-126.1l0.1,2.7l0.2-18.7v-21.6c36.4,0,72.9,0,109.4,0c5.6,0,11.5,0,16.8,0
	c21.9,0.1,28.1,0.1,25.7-0.3c-4.5-0.6,20-0.7,37-0.9c22.5-0.2,45.8-0.3,69.5-0.5c11.9-0.1,23.8-0.1,35.8-0.2h9.1
	c3.2,0.1,6.3,0.4,9.5,0.9c6.1,0.8,12.2,2.1,18.2,3.9c19,5.4,37.2,15.4,52.9,27.9c15.2,12.4,28.4,27.2,38.9,43.7
	c10.9,15.2,11.7,35.4,2.1,51.5c-4.9,7.2-9.3,14.4-14.9,20.9c-10.9,13.7-23.9,25.6-38.4,35.4c-2,1.2-5.3,3.5-8.6,5.2l-7.6,3.9
	c-2.9,1.2-5.8,2.3-8.7,3.2c-7.6,3.2-15.4,5.8-23.4,7.6c2.1-0.6,3.9-0.9,7.5-2.2c-9.6,2.8-18.6,4.7-27.8,5c-8.7,0-16.9,0-25.1,0
	c-16.3-0.1-32.3-0.2-50.2-0.3l-3.1,0.4c-11.2,0-22.5,0-39.4-0.1c7.7-0.1,10.9-0.2,8.7-0.1c-0.5-0.3-4.9-0.6-0.1-0.8
	c3.8-0.2,18.7-0.3,29.3-0.3c11.4,0,16.2,0,19.5-0.3c2.4-0.2,17.4-0.4,26.9-0.5c23.2-0.4,15.6-1,17-1.5c0.5-0.2-0.8-0.4-1.4-0.6
	c-1.4,0-7.8-0.1-19.3-0.2c12.5-0.1,21.1-0.2,32-0.4l-1.9,0.3c2.4,0,5.5,0,8.2,0c2.7,0,5-0.4,5.9-0.5c14.2-2.3,28-6.9,40.7-13.7
	c6.6-3.8,2.6-1.7-6.2,1.9c-8.8,3.6-22.8,8-35.3,9.4c-4,0.4-7.9,0.6-11.9,0.5h-12.5c-8.3,0-16.7,0-25.1,0c-16.8,0-33.6,0-50.3,0
	c-13.8,0-27.5-0.1-42.1-0.1l67.1-0.2v-0.1c-7.4,0-14.9,0-22.3-0.1c-14.6,0-25.5,0-34.6-0.3c-8.4-0.3-22.1-0.3-41-0.3
	c-22.7,0.1-54.1,0.3-70.3-0.3c-6.1-0.2-1-0.6-1-0.9H72.8l30.7-2.1c-0.3,0-6.5-0.1-12.7-0.1c38-0.2,19.1-1.1,50.2-1.5l-30.1-0.3
	c9.9-0.3,21.6-0.5,15.9-1c-4.5-0.4,14.3-0.8,20.5-1.3c2.5-0.2-2.6-0.4-1.2-0.6c3.5-0.5,7-0.7,10.5-0.6c16.1-0.1,23.6-0.8,48.9-0.3
	c2.2,0,8.3,0,11.9,0c41.3-0.3,80.7-0.2,121.8,0.1c6.5,0,13.3,0.1,20.2,0.1c6.8-0.1,14.5,0.4,19.5-0.3c12.6-1.6,24.8-5.2,36.2-10.7
	c13.6-6.3,26-14.9,36.8-25.2c10.8-10.2,20.4-22.6,28.4-35.2c3.3-5.5,4.7-12,3.8-18.4c-0.4-3.2-1.4-6.2-2.8-9.1
	c-0.3-0.7-0.8-1.4-1.2-2.1s-1.2-1.8-1.8-2.7l-3.7-5.5c-9.9-14.5-22.1-27.3-36.2-37.8c-2.8-2.1-5.6-4.1-8.6-5.9
	c-2.6-1.7-5.4-3.3-8.2-4.7c-7.8-4.1-16-7.4-24.4-9.9c-8.7-2.5-17.9-4.4-26-4.2c-20.3-0.1-39.6-0.2-54.3-0.5
	c-12.4-0.1-35.1-0.2-53.1-0.4l1.8,0.2c-6,0.2-9.2,0.6-18.7,0.7c-18.9,0.2-39,0.1-58.6-0.2l-58-0.4l5.8-0.8c-60.3-0.1-36-1-33.5-1.8
	c-5.1,0-10.1,0-15,0.1c-1.1,0-2.1,0-3.1,0.1l0.1,23.7c0,32.3,0.1,66.5-0.5,94.6l0,32.2l-0.4,27.7L83,334.3
	c-0.3,19.3-0.8,29.2-1.3,11.2c-0.1-4.1-0.4,0.5-0.5-0.3c-0.5-2.3-1-10.4-1.1-48.2c-0.1-19.7-1.1-42.8-1.7-35.9
	c-0.8,10.1-1.5-19-1.4-57.6l0-38.6c5.8,0,11.6,0,17.4,0c4.6,0,9.5-0.2,12.5-0.3c10.7-0.4,51.7-0.9,74.9-0.8c4.5,0,10.3,0.1,12.5,0.1
	c15.4,0.5,15.1,0.5,37.6,0.1c-11.9-0.5-23.9-1-34-1.4c-1.4,0-2.9-0.2-4.2-0.6h43.6c5,0.1,9.9,0.1,14.5,0.2l90.2-0.1h22.6
	c3.7,0,7.6-0.1,11.2,0c3.7,0.2,7.4,0.7,11,1.3c14.7,2.7,28.8,7.7,41.9,14.9c2.2,1.2,4.4,2.2,6.3,3.6c-0.2-0.2-0.4-0.3-0.5-0.5
	c-10.2-6.1-21.1-11-32.5-14.6c-11.4-3.5-23.2-5.7-35.1-5.1c-24,0-48,0-72-0.1c-14.7,0-29.5,0-44.3,0.1c-29.2,0-37.6-0.2-33.8-0.9
	c-16.2,0.1-28.8,0.2-41.8,0.4c-8.7,0-17.8,0.1-26.9,0.1c-26.3,0.1-50.8,0.3-74.3,0.4l0.4,40.7l0.1,44.2l0.2,69.4
	c0.1,36.3-0.1,50.4-0.8,43.5c-0.5-5.1-1.1-7.8-1.7-12.1C71.7,329.8,71.4,318.4,70.9,322.8z M310,350.7c-4.4-0.1-8.1-0.4-13.2-0.4
	c-14.8,0-30.1,0-45.1,0c-9,0-17.9,0-26.8,0.1c-5.3,0-10.7-0.1-16.1-0.1l-2,0.2l98.4,0.3L310,350.7z M465.8,206.6
	c6.6,7,12.7,14.5,18.3,22.4c3.3,5.1,7.6,10.2,10,16.3c2.6,6.3,3.6,13.1,3,19.9c1-9.4-1.3-18.8-6.3-26.7l-0.3-0.6
	c1.4,2.1,2.5,4.2,3.5,6.5c1.8,4.1,2.9,8.5,3.3,13c-1.3-14.2-7.6-20.7-10.1-24.8l-5-7.3c-1.8-2.3-3.6-4.4-5.4-6.5
	c-1.8-2.2-3.5-4.3-5.4-6.3L465.8,206.6z M481,320.1c3.8-3.9,6.5-7.6,9.3-10.6c2.5-2.8,4.7-5.7,6.8-8.7l5.4-8.1c1-1.5,2-3.1,2.8-4.7
	c0.9-1.8,1.8-3.6,2.5-5.4c6-14.7,5.5-31.2-1.3-45.4c-0.8-1.7-1.7-3.4-2.7-5c-1-1.7-1.8-2.7-2.7-4l-5.3-7.6c-1.8-2.7-3.9-5.4-6.1-7.8
	c-2.7-3.1-3.2-3.4-2.1-1.6s4.3,5.4,7.6,11.1l6,9.3c2.7,4.4,4.9,9.2,6.3,14.2c3.3,11.6,2.8,24-1.7,35.3c-1.2,3.2-2.8,6.2-4.6,9.1
	l-4.8,7.1l-4.8,7.1l-5.4,6.7c-1.8,2.2-3.6,4.5-5.5,6.7l-6,6.3c-3.9,4.3-8.4,8-12.7,11.9c-17.8,15.1-38.6,26.1-61,32.4
	c-7.5,2-15.1,3.4-22.8,4.2c-1.6,0.1-2.7,0.2-4.4,0.3c-1.1,0-2,0-2.9,0.1l-4.1,0.2c-9.1,0.7-17.5,1.5-24.3,2.2
	c-1.1,0.1,5.5,0.3,11.2,0.4c3.6,0,7.2,0.1,10.9,0.1c1.9,0,3.7,0,5.6,0h2.8h1.9l1.8-0.1c8.8-0.6,17.5-2.2,26-4.6
	c16.7-4.9,32.6-12.3,47-22.2c5.4-3.7,9.3-7,12.4-9.2l5.6-5.1c1.8-1.8,0-0.4-4.8,3.6c-2.9,2.4-0.7,0.2-0.8,0.1
	c3.3-3,7.3-6.4,10.8-9.7L481,320.1z M230.2,154.9c16.5,0,37.5,0,55,0c25.5,0.1,42.5-0.1,63.2-0.3c7.8,0,15.6-0.1,23.5-0.1
	c8.7-0.1,17.1,1.4,25.4,3.4c17.1,4.3,33.4,11.6,48,21.4c2.5,1.4,7.4,5,10.4,6.8c1.3,0.9,0-0.4-2.7-2.6c-4-3.5-10.3-7.7-15.8-11.3
	l-11.6-6.6c-1.1-0.7-3.6-2-7-3.6c-3.5-1.3-7.8-3.3-12.9-4.8c-10.1-3.1-21.8-5.8-32.8-5.9c-15.9-0.1-24.9,0.1-31.2,0.4
	c-6.5,0.3-16.7,0.7-28.5,1c-4.8,0.1-22.1,0.2-26.7,0.1c-30.5-0.5-61.2-0.1-86.1-0.1l15.9,1.1L230.2,154.9z M145.2,373.1
	c-6.2,0.1-14.9,0.1-19.7,0.2c-29.6,0.6-16.5,1.7,20.5,2.1c39.4,0.5,81.6,0.3,122.3,0.4c10.8,0,21.9,0,32.9,0l3.6-0.2l-103.2-1.9
	l-6.3,0.1l6.3-0.5C181.6,373.2,163.5,373.2,145.2,373.1z M371.4,297.4l-0.2-38.3l0.1,0.8c0.1-1.9,0.2-3.8,0.2-5.7v-38.7
	c-0.1-1.8,0-3.6,0.3-5.4c0.5-2.4,1.5-4.8,2.9-6.8c0.8-1.1,1-1.4,0.6-1.2c-0.7,0.4,0.1-1.2,2.3-2.9c2.5-2,5.5-3.2,8.7-3.6
	c3.8-0.2,7.5,0.1,11.2,0.9c3.7,0.7,7.3,1.7,10.8,2.9c7.2,2.5,14,5.9,20.3,10.2c10.2,6.7,19.2,16.2,26.1,25.5
	c1.4,1.8,2.8,4.3,4.2,6.5c1.6,2.3,3,4.8,4,7.4c1,2.7,1.7,5.6,2,8.5c0.5,5.9-0.5,11.9-2.9,17.3c-0.9,1.8-2,3.5-3.2,5
	c-0.6,0.7-1.4,1.4-2.2,2c-1.4,2.1-2.8,4.1-4.4,6.1l1.2-2l-5.1,6.9l-5.1,5.8c-3.6,3.7-7.6,7.2-11.8,10.3l-0.5,0.9
	c-3.3,2.4-6.8,4.7-10.4,6.7l2.3-1.4c-0.3-0.2-1.6,0.2-0.4-0.7c1-0.6,4.7-3.4,7.4-5.3c2.7-2.2,3.9-3.2,4.5-4l5.7-6
	c4.6-5.5,2.5-4.2,2.4-4.8c0-0.2-0.4-0.1-0.8-0.1c-1.3,1.4-2.7,2.8-4.2,4c2.7-2.6,4.1-4.8,6.3-7.2l-0.1,0.6c1-1,1.9-2.2,2.7-3.3
	l3.8-5.9l2.8-5.5c1.9-4.2-3.7,4.1-8.6,10c-6.1,7.6-13.2,14.3-21.2,19.8c-1.6,1.2-3.3,2.2-5.1,3.2c-1.8,1.1-3.6,2-5.5,2.8
	c5.8-2.8,11.3-6.4,16.2-10.6l-0.1-0.1c-1.7,1.4-3.4,2.6-5.2,3.8c-2.7,1.9-5.6,3.6-8.6,4.9c-2.3,0.8-5.8,2.6-10.8,4.4
	c-3.3,1.2-6.7,2.1-10.2,2.8c-1.6,0.3-3.2,0.5-4.9,0.5c-1,0.1-2-0.1-2.9-0.5c-1-0.5,0-0.6,0-0.9c-3.6-0.9-6.2-4.1-6.2-7.9
	c0.6,1.6,1.8,2.8,3.3,3.6c-0.3-0.4-0.5-0.9-0.6-1.4c1.1,2,2,2,2.4,2.1c0.8,0,1.6,0,2.3,0.1c-0.9-0.2-1.6-0.7-2.2-1.4
	c0.8,0.4,1.7,0.5,1.5-0.1c0-0.4,1.1-0.5,1.3-1c0.1-0.1-0.1-0.4,0-0.6c0.1-0.2,0.1-0.2,0-0.4c0.4-0.2,0.8-0.3,1.3-0.4
	c3.5-0.6,5.2-1.5,11.3-2.9c1-0.3,1.9-0.6,2.8-1c16.5-6.9,30.4-18.8,39.7-34.2l1.8-2.8c0.4-0.6,0.7-1.2,1-1.9c0.5-1.1,0.8-2.4,1-3.6
	c0.3-2.5,0-5-0.9-7.3c-0.3-0.7-0.6-1.3-0.9-1.9l-2.1-3.2c-1.3-2.2-2.7-4.3-4.3-6.4c-3-4.1-6.2-7.9-9.8-11.4c-1.4-1.3-3-2.9-4.2-3.8
	c-7.6-6-16-10.8-25-14.4c-1.9-0.7-3.8-1.3-5.7-1.7c-1.1-0.3-2.2-0.4-3.4-0.6l-2.2-0.3v0.2c-0.1,0.2-0.1,0.5,0,0.7
	c0,0.2,0.1-0.1-0.3,0.2c-0.2,4.2-0.3,11.1-0.4,17.6l-0.8-1.8c-0.1,18.3-1,10.9-1.8,10.2l0.2,19.7c0,9.8,0.1,20.2-0.5,28.7
	c-0.1,1.9,0,6.7,0,9.8l-0.4,8.4l-0.5-4.9c-0.3,5.9-0.8,8.9-1.3,3.4c-0.1-1.2-0.4,0.2-0.6-0.1c-0.5-0.7-1-3.2-1.1-14.6
	c-0.1-6-1.1-13-1.7-10.9c-0.8,3.1-1.5-5.8-1.4-17.5v-19.5c0-1.3-0.1-2.5-0.3-3.8c-0.4-3.3-0.9-15.7-0.8-22.7v-2.1
	c0.1-0.6,0.1-1,0.2-1.3c0.3-1.2,0.8-2.4,1.4-3.5c0.7-1.5,1.6-2.9,2.8-4.1c-2.5,1.5-4.4,3.8-5.4,6.5c-0.3,1-0.5,0.7-0.8,1
	c0.4-4.1,2.7-7.7,6.1-9.9c1.2-0.7,2.4-1.2,3.7-1.4c3.9-1.1,8.5,0,12.9,0.8c4.4,1,8.6,2.4,12.8,4.1c8.3,3.5,16.1,8.2,22.9,14.1
	c0.6,0.4,1.1,1,1.7,1.4c0-0.1,0-0.2-0.1-0.2c-10.7-9.6-23.7-17-37.8-20c-4.3-0.8-8.8-1.8-12.9-0.6c-2.7,0.8-5.1,2.4-6.9,4.5
	c-1,1.1-1.4,1.4-1.4,0.6c-2.7,4.3-2.1,8.4-2,12.2l0.1,8.2c0.1,12.8,0.4,24.2,0.8,35.5c0.1,3.8,0.1,8.9,0.1,13.4l0.2,21.1
	c0.1,11-0.1,15.3-0.8,13.2c-0.5-1.3-1-2.5-1.7-3.7C372.2,299.5,371.9,296,371.4,297.4z M425.7,296.6c-1,0.6-2,1.2-3,1.9
	c-3.2,2.4-6.6,4.6-10.1,6.5c-2.1,1.1-4.2,2.2-6.4,3.1c-1.3,0.5-2.6,1.1-4,1.4l-0.4,0.4c8.3-2.8,16.1-7,23-12.4L425.7,296.6z
	 M443,229.2c2.5,3.1,7.6,9.8,12.4,16.8l-4.7-7.2l-0.1-0.2l3.6,5.3c-2.2-3.7-3.5-5.9-4.5-7C447.6,234.2,445.4,231.6,443,229.2z
	 M474.1,261c0.2-3.5,0-7.1-0.7-10.5c-0.7-2.7-1.7-5.2-3-7.7c-0.6-1.2-1.4-2.5-1.9-3.4l-1.7-2.5c-2.1-3.3-4.4-6.5-6.9-9.6
	c-0.8-1-1.7-2-2-2.4c-1.9-1.8-1-0.1,1.2,3.4c1.2,1.7,2.6,3.9,4,6.5l2.4,3.9l1.3,2l1.5,2.7c4.1,8.4,5,18,2.8,27
	c-0.6,2.2-1.3,4.4-2.3,6.5c-0.9,1.9-1.9,3.8-3.1,5.5c-2,3-3.8,6-5.9,8.9c-3.7,4.8-5.5,7.4-6.2,8.5c-1.5,2.8-2.8,5.4-3.9,7.6
	c-0.2,0.4,1.6-1.1,2.9-2.5c3.7-3.7,7.1-7.7,10.1-11.9c1.6-2.1,2.9-4.5,4.4-6.8l2.1-3.3c0.9-1.5,1.7-3,2.4-4.6c1.4-2.9,2.3-6,2.8-9.2
	c0.1-1.1-0.2-0.1-1,2.3c-0.5,1.5-0.4,0.2-0.5,0.2C473.6,268.2,474.1,264.6,474.1,261z M374.5,197.4c2.9-2.5,6.5-4.2,10.3-4.7
	c4.3-0.6,7.4,0.1,10.3,0.6c6.8,1.3,13.4,3.2,19.8,5.9c9.8,4.3,18.8,10.1,26.6,17.4c0.7,0.5,2.3,1.6,3.3,2.2c0.4,0.3,0.1-0.3-0.5-1.1
	c-2.1-2.6-6.5-6.9-7-7.6c-0.7-1.6-8.1-7.1-13.7-10.1c-3-1.9-6.2-3.3-9.6-4.3c-2.2-0.5-5.5-1.5-9.3-2.3c-1.6-0.4-7.3-1.7-8.8-2
	c-2.8-0.6-5.6-1-8.4-1.1c-3.5,0-7,0.9-10.1,2.5c-5.7,3-9.9,8.4-11.5,14.7c0.9-2.3,2.2-4.4,3.8-6.2
	C371,199.7,372.7,198.4,374.5,197.4L374.5,197.4z M386.2,335.4c-3.7-0.2-7.2-1.1-10.6-2.6c-2.5-1.2-4.8-2.6-6.9-4.3
	c-1.1-0.8-1.2-0.7-0.5,0.3c1.5,1.9,3.3,3.5,5.4,4.8c3.9,2.5,8.4,3.9,13,4.2c2.3,0.1,4.6,0,6.9-0.2c1.9-0.2,3.8-0.5,5.6-0.9
	c3.7-0.7,7.3-1.6,10.8-2.8c6.9-2.4,13.6-5.5,19.9-9.3c3.3-2,6.5-4.2,9.5-6.6l0.9-0.9c-9.8,7.2-20.9,12.4-32.6,15.5l-2.1,0.8
	c0.5-0.3,1.1-0.6,2-1.1c-3.3,1-6.6,1.8-9.9,2.4c-1.6,0.3-3.3,0.5-5,0.7C390.4,335.5,388.3,335.6,386.2,335.4L386.2,335.4z
	 M121,156.6l-0.2-13.8l0.1,0.3c0.1-0.7,0.2-1.4,0.2-2.1c0-4.6,0-9.3,0-14c0-0.6,0-1.3,0-1.8c0.1-2.4,0.1-3.1-0.3-2.8
	c-0.6,0.5-0.7-2.2-0.9-4.1c-0.4-4.9-0.6-10.2-0.9-15.5c-0.2-4.2-0.2-8.7-0.5-12.7c-0.1-0.8,0-1.8,0-2.7c0-3.7,0.4-7.3,0.1-11.1
	c0-0.7,0.1-1.3,0.3-2c0.2-0.4,0.5-0.7,0.8-1l0.1-2.6l0.2,0.8c-0.1-2.2-0.2-4-0.2-5.8c0-1.8,0.2-3.5,0.3-5.5l-0.4-0.3l0.1-4.3l0.1,1
	c0.3-0.1,0.6-0.5,0.8,0c0.2,1.1,0.3,2.1,0.3,3.2c0,1.2,0,1.8,0.3,2.1c0.3,1,0.4,1.9,0.5,2.9c0.4,2.5,1,1.7,1.5,1.9
	c0.2,0.1,0.4-0.1,0.6-0.2l0.2-2.1l0.4,3.5l-0.3-0.2c0,0.5,0,1.3,0,1.6c0.4,1.7,0.7,3.5,1.2,4.8c0.6,1.7,1.3-2,1.3-4.9
	c0.1-3.6,0-7.3,0-11c0-1.5,0-3,0.1-4.6l0.2,7.3c0,0,0.1,0,0.1,0c0-0.8,0.1-1.6,0.1-2.4c-0.1-1.3,0-2.5,0.3-3.8
	c0.3-1.5,0.4-3,0.3-4.5c-0.1-2.5-0.3-5.9,0.3-7.7c0.2-0.7,0.6-0.1,0.9-0.1v-7l2.1,3.4l0.1-1.4c0.2,4.2,1.1,2.1,1.5,5.5l0.3-3.3
	c0.3,1.1,0.5,2.4,1,1.7s0.8,1.6,1.3,2.2c0.2,0.3,0.4-0.3,0.6-0.1c0.4,0.3,0.6,0.7,0.6,1.2c0.1,1.8,0.8,2.6,0.3,5.3
	c0,0.4,0,0.9,0,1.3c0.2,4.4,0.2,8.9-0.1,13.3c-0.2,2.8-0.2,6.1-0.1,9.2c0,3.6,0.2,7.2,0.3,10.8c0,4.2,0,8.4,0,12.6
	c0,0.8,0,1.7,0.1,2.4c0.4,4.2,0.3,8.4-0.3,12.5c-0.2,1.3-0.2,3.8-0.4,5.8l0.2-0.2c0.4,0.6,0.6,1.3,0.7,2.1c0.2,2.1,0.1,4.3-0.2,6.4
	c-0.2,1.5-0.3,4-0.4,6.4l-0.8-0.6c-0.1,6.6-1,3.9-1.8,3.7c0.1,2.5,0.2,4.8,0.2,7.1c0.1,3.5-0.1,6.9-0.5,10.4c-0.1,0.7,0,2.4,0,3.5
	s-0.2,2-0.4,3l-0.5-1.8c-0.3,2.1-0.8,3.2-1.3,1.2c-0.1-0.4-0.4,0.1-0.5,0c-0.5-0.3-1-1.1-1.1-5.3c-0.1-2.2-1.1-4.7-1.7-3.9
	c-0.8,1.1-1.5-2.1-1.4-6.3c0-2.3,0-4.7,0-7c0-0.5-0.1-0.9-0.3-1.4c-0.6-2.7-0.8-5.4-0.8-8.2c0-0.5,0-0.9,0.1-1.4
	c0.5-1.7,0.5-1.7,0.1-4.1c-0.5,1.3-0.9,2.6-1.4,3.7c-0.2,0.4-0.4,0.3-0.6,0.5c0-1.6,0-3.2,0-4.8c0-0.6,0.2-1.1,0.2-1.6
	c-0.1-6.6-0.2-13.2-0.2-19.8c0-0.3,0-0.5-0.1-0.8c0,0-0.1,0-0.1,0.1c0,5.2-0.1,10.5-0.2,15.8c0,1.6,0.1,3.2,0.1,4.8
	c0,3.2-0.2,4.1-0.9,3.7c0.1,1.8,0.3,3.2,0.4,4.6c0.1,1,0.1,1.9,0.1,2.9c0.1,4.6,0.4,8.7,0.8,12.8c0.1,1.4,0.1,3.2,0.1,4.8
	c0.1,2.5,0.1,5.1,0.2,7.6c0.1,4-0.1,5.5-0.8,4.8c-0.5-0.5-1.1-0.9-1.7-1.3C121.8,157.3,121.5,156.1,121,156.6z M133.2,61.6
	c0.2-0.5,0.3-1,0.4-1.5c0-1.6,0-3.3,0-4.9c0-1-0.1-2-0.1-2.9c0-0.6,0.1-1.2,0.1-1.8l-0.2-0.2L133,61L133.2,61.6z M123.8,94.4
	c0.3-2.5,0.3-5.1-0.1-7.6v3.1v0.1l-0.2-2.3c-0.1,1.6-0.2,2.5-0.1,3C123.5,91.9,123.7,93.1,123.8,94.4L123.8,94.4z M109.4,80.8
	c-0.2,0.9-0.4,1.7-0.6,2.6l0.7,7.8c0,0.3,0.1,0.7,0.2,1c0.7,1.7,1.7-2.4,1.7-6.7c0-4.7,0.1-9.5,0.2-14.2c0-2,0-3-0.3-3.5
	c-0.7-0.9-1.4-1.8-2.2-2.7c-0.1-0.1-0.3,0.6-0.4,1.2c-0.5,3.1-0.2,6.8-0.2,10.2c0,2.6,0.2,3,0.6,1.7c0.1-0.4,0.3-0.1,0.5-0.1
	C109.4,79.1,109.5,80.3,109.4,80.8z M116.9,121.6c0-1.8-0.1-4.1,0-6c0.1-2.3,0-4.6-0.3-6.9c-0.2-3.4-0.3-6.9-0.5-10.8
	c-0.2-0.4-0.4-0.9-0.6-1.3c-0.1-0.2-0.3,0-0.4,0.4c-0.3,1.1-0.6,3.2-1,3.4c-0.7,0.5-0.5,3.5-0.6,5.6c-0.2,1.2,0,2.3,0.4,3.4
	c0.4,1,0.8,2,1,3.1c0.1,1,0.2,2,0.1,2.9c-0.5,3.3-0.1,6.7-0.1,9.4c0.4-0.6,0.7-1.2,1-1.7S116.6,122.1,116.9,121.6z M110.8,43.5
	c0-0.7-0.1-1.4-0.2-2.2c-0.6-3.2-1.7-1.8-2.1,2.2c-0.5,4.3-0.2,8.9-0.4,13.4c0,1.2,0,2.4,0,3.6l0.2,0.4l1.9-11.3l-0.1-0.7l0.5,0.7
	C110.6,47.5,110.7,45.5,110.8,43.5L110.8,43.5z M121,482.1l-0.2-13.8l0.1,0.3c0.1-0.7,0.2-1.4,0.2-2c0-4.6,0-9.3,0-14
	c0-0.6,0-1.3,0-1.8c0.1-2.4,0.1-3.1-0.3-2.8c-0.6,0.5-0.7-2.2-0.9-4c-0.4-4.9-0.6-10.2-0.9-15.5c-0.2-4.2-0.2-8.7-0.5-12.7
	c-0.1-0.8,0-1.8,0-2.7c0-3.7,0.4-7.3,0.1-11.1c0-0.7,0.1-1.3,0.3-2c0.2-0.4,0.5-0.7,0.8-1l0.1-2.6l0.2,0.8c-0.1-2.1-0.2-4-0.2-5.8
	s0.2-3.5,0.3-5.5l-0.4-0.3l0.1-4.3l0.1,1c0.3-0.1,0.6-0.5,0.8,0c0.2,1.1,0.3,2.1,0.3,3.2c0,1.2,0,1.8,0.3,2.1c0.3,1,0.4,1.9,0.5,2.9
	c0.4,2.5,1,1.7,1.5,1.9c0.2,0.1,0.4-0.1,0.6-0.1l0.2-2.1l0.4,3.5l-0.3-0.2c0,0.5,0,1.4,0,1.6c0.4,1.7,0.7,3.5,1.2,4.8
	c0.6,1.7,1.3-2,1.3-4.9c0.1-3.6,0-7.3,0-11c0-1.5,0-3,0.1-4.6l0.2,7.4c0,0,0.1,0,0.1,0c0-0.8,0.1-1.6,0.1-2.4
	c-0.1-1.3,0-2.5,0.3-3.8c0.3-1.5,0.4-3,0.3-4.5c-0.1-2.5-0.3-5.9,0.3-7.7c0.2-0.7,0.6-0.1,0.9-0.1v-7l2.1,3.4l0.1-1.4
	c0.2,4.2,1.1,2.1,1.5,5.5l0.3-3.3c0.3,1.1,0.5,2.4,1,1.7s0.8,1.6,1.3,2.2c0.2,0.3,0.4-0.3,0.6-0.1c0.4,0.3,0.6,0.7,0.6,1.1
	c0.1,1.8,0.8,2.6,0.3,5.4c0,0.4,0,0.9,0,1.3c0.2,4.4,0.2,8.9-0.1,13.3c-0.2,2.9-0.2,6.1-0.1,9.2c0,3.6,0.2,7.2,0.3,10.8
	c0,4.2,0,8.4,0,12.5c0,0.8,0,1.7,0.1,2.4c0.4,4.2,0.3,8.4-0.3,12.5c-0.2,1.4-0.2,3.8-0.4,5.8l0.2-0.2c0.4,0.6,0.6,1.3,0.7,2
	c0.2,2.1,0.1,4.3-0.2,6.4c-0.2,1.5-0.3,4-0.4,6.4l-0.8-0.6c-0.1,6.6-1,3.9-1.8,3.7c0.1,2.5,0.2,4.8,0.2,7.1
	c0.1,3.5-0.1,6.9-0.5,10.4c-0.1,0.7,0,2.4,0,3.5s-0.2,2-0.4,3l-0.5-1.8c-0.3,2.1-0.8,3.2-1.3,1.2c-0.1-0.5-0.4,0.1-0.5,0
	c-0.5-0.3-1-1.1-1.1-5.3c-0.1-2.2-1.1-4.7-1.7-3.9c-0.8,1.1-1.5-2.1-1.4-6.3c0-2.3,0-4.7,0-7c0-0.5-0.1-0.9-0.3-1.4
	c-0.6-2.7-0.8-5.4-0.8-8.2c0-0.5,0-0.9,0.1-1.4c0.5-1.7,0.5-1.7,0.1-4.1c-0.5,1.3-0.9,2.6-1.4,3.7c-0.2,0.4-0.4,0.3-0.6,0.5
	c0-1.6,0-3.2,0-4.8c0-0.5,0.2-1.1,0.2-1.6c-0.1-6.6-0.2-13.2-0.2-19.8c0-0.3,0-0.5-0.1-0.8c0,0-0.1,0-0.1,0.1
	c0,5.2-0.1,10.5-0.1,15.8c0,1.6,0.1,3.2,0.1,4.9c0,3.2-0.2,4.1-0.9,3.7c0.1,1.8,0.3,3.2,0.4,4.6c0.1,1,0.1,2,0.1,3
	c0.1,4.6,0.4,8.7,0.8,12.8c0.1,1.4,0.1,3.2,0.1,4.8c0.1,2.5,0.1,5.1,0.2,7.6c0.1,4-0.1,5.5-0.8,4.8c-0.5-0.5-1.1-0.9-1.7-1.3
	C121.8,482.9,121.5,481.6,121,482.1z M133.2,387.1c0.2-0.5,0.3-1,0.4-1.5c0-1.6,0-3.3,0-4.9c0-1-0.1-2-0.1-2.9
	c0-0.6,0.1-1.2,0.1-1.8l-0.2-0.2l-0.3,10.8L133.2,387.1z M123.8,419.9c0.3-2.5,0.3-5.1-0.1-7.6v3.1v0.1l-0.2-2.3
	c-0.1,1.6-0.2,2.5-0.1,3C123.5,417.5,123.7,418.6,123.8,419.9L123.8,419.9z M109.4,406.4c-0.2,0.9-0.4,1.7-0.6,2.6l0.7,7.8
	c0,0.3,0.1,0.7,0.2,1c0.7,1.7,1.7-2.4,1.7-6.7c0-4.7,0.1-9.5,0.2-14.2c0-2,0-3-0.3-3.5c-0.7-0.9-1.4-1.8-2.2-2.7
	c-0.1-0.1-0.3,0.6-0.4,1.2c-0.5,3.1-0.2,6.8-0.2,10.2c0,2.6,0.2,3,0.6,1.7c0.1-0.4,0.3-0.1,0.5-0.1
	C109.4,404.6,109.5,405.8,109.4,406.4L109.4,406.4z M116.9,447.1c0-1.8-0.1-4.1,0-6c0.1-2.3,0-4.6-0.3-6.9
	c-0.2-3.4-0.3-6.9-0.5-10.8c-0.2-0.4-0.4-0.9-0.6-1.3c-0.1-0.2-0.3,0-0.4,0.4c-0.3,1.1-0.6,3.2-1,3.4c-0.7,0.5-0.5,3.5-0.6,5.6
	c-0.2,1.2,0,2.3,0.4,3.4c0.4,1,0.8,2,1,3.1c0.1,1,0.2,2,0.1,2.9c-0.5,3.3-0.1,6.7-0.1,9.4c0.4-0.6,0.7-1.2,1-1.7
	S116.6,447.6,116.9,447.1L116.9,447.1z M110.8,369c0-0.7-0.1-1.4-0.2-2.2c-0.6-3.2-1.7-1.8-2.1,2.2c-0.5,4.3-0.2,8.9-0.4,13.4
	c0,1.2,0,2.4,0,3.6l0.2,0.4l1.9-11.3l-0.1-0.7l0.5,0.7C110.6,373,110.7,371,110.8,369z"/>
</svg>
