<?xml version="1.0" encoding="utf-8"?>
<!-- Generator: Adobe Illustrator 21.1.0, SVG Export Plug-In . SVG Version: 6.00 Build 0)  -->
<svg version="1.1" id="Layer_1" xmlns="http://www.w3.org/2000/svg" xmlns:xlink="http://www.w3.org/1999/xlink" x="0px" y="0px"
	 viewBox="0 0 755.6 512" style="enable-background:new 0 0 755.6 512;" xml:space="preserve">
<style type="text/css">
	.st0{fill:#707070;}
</style>
<title>spaceship_style_5</title>
<path class="st0" d="M120.3,323.7c-2.8,3.8-6.7,7.3-11.5,10.1c-4.9,2.8-10,4.8-14.8,7.1c-4.9,2.4-10,4.5-15.3,6.5
	c-5.7,1.8-11.8,2.8-18.1,3.1l1.6-0.2c-1.9,0.1-3.7,0.1-5.6,0c-1.9,0-3.7-0.2-5.6-0.4c-12.6-1.3-24.1-5.8-31.9-12.6
	c-3.9-3.4-6.7-7.3-8.4-11.4c-1.4-4.1-2-8.3-1.7-12.5l0-6.4c0.1-8.3,0.1-10.7-0.4-9.8c-0.9,1.7-1.1-7.6-1.3-14.1L6,229.3L5.7,207
	c-0.2-4.1,0.4-8.1,1.9-12.1c1.6-3.9,4.2-7.7,7.7-11c3-2.9,6.7-5.5,11-7.6c17.3-8.9,42-9.4,60.8-1.1c2.2,0.9,7.2,3.4,8.3,4
	c1.3,0.8,2.5,1.6,3.6,2.6c4,1.7,7.8,3.6,11.4,5.7c-1-0.6-1.9-1-3.9-1.8c13.2,6.3,20.9,16.6,20.6,27.5l-0.2,9.8l0.6,1.2l-0.1,15
	l-0.2-3.3c-0.5,0.2-0.9,1.9-1.2,0c-0.3-1.5-0.4-7.1-0.5-11.1c0-4.3,0-6.2-0.4-7.4c-0.4-0.9-0.2-6.7-1.7-10.4
	c-1.8-4.4-3.2-5.6-3.8-5.9s-0.7,0.3-1.2,0.2s-0.4,0.4-0.6,0.7c1.2,2.2,2,4.5,2.4,6.8c-1-3.8-3.1-7.4-6.2-10.6l0.9,0.4
	c-1.2-1.5-2.7-2.9-4.3-4.3c-2.8-2-6.1-3.8-9.7-5.2L90.8,185c-3.9-1.4-2-0.2,2.4,2.1l7.7,3.9c2.6,1.4,4.9,3,7,4.7
	c5.2,4.3,8.3,9.6,8.9,15.1c0.3,5.8,0.1,12.6,0.1,18.8l-0.2,16l-0.3-25.5h-0.2l-0.1,8.5c0,5.6,0,9.7-0.5,13.2
	c-0.4,3.2-0.5,8.4-0.4,15.6c0.1,8.6,0.5,20.6-0.4,26.7c-0.3,2.3-0.9,0.4-1.3,0.4l0,24.2l-3.2-11.7l-0.2,4.9
	c-0.3-14.4-1.7-7.3-2.2-19.1l-0.5,11.5c-0.4-3.8-0.7-8.2-1.5-6c-0.5,1.7-1.2-5.4-1.9-7.8c-0.3-1-0.6,1-0.9,0.5c-0.7-1.3-1-2.6-1-4
	c-0.1-6.1-1.2-9-0.5-18.6c0-0.8,0-3.2,0-4.5l-0.2-23.2l0.1-11.5l0.1-5.8c0.1-1.1,0-2.3-0.3-3.4c-0.6-2.9-2.3-5.6-5-7.8
	c-1.4-1.2-3-2.2-4.8-3.1l-9.2-4.1l-5.8-2.6l-3-1.3c-0.8-0.4-1.6-0.7-2.5-1c-6.5-2.7-14.6-3.3-21.8-1.5c-5.5,1.4-10.3,4-13.3,7.4
	c-1.5,1.7-2.5,3.5-3,5.4c-0.3,1-0.4,2-0.5,3l0,5.3l0.1,8.3c0.7,14.1,0.4,32.3-0.4,43.5c-0.4,4.7-0.4,13.4-0.5,20.2l0.3-0.7
	c0.6,2.4,0.9,4.7,1.1,7.1c0.2,7.2,0.2,14.8-0.3,22.3l-0.2,4.5c0,0.8-0.1,1.9,0,2.4l0.1,1.6c0.2,2.2,1.1,4.4,2.6,6.3l-2-0.7
	c4.4,5.8,7.8,6.8,7.5,7.4c0,0.4-2.2-0.2-3-0.2c5.9,3.4,13.6,5.3,21.4,5.1c2.9-0.1,5.7-0.5,8.4-1.1c1.4-0.3,2.7-0.7,4-1.2
	c1.5-0.6,3-1.2,4.4-1.8l20-8.7c3-1.7,5.4-3.8,7.2-6.2c1.6-2,2.8-4.2,3.5-6.4c0,1.4-0.3,2.7-0.7,4.1c1.5-2.3,2-4.2,2.4-4.8
	c0.4-0.7,0.9-0.1,0.7,2.3c-0.2,1.1,0.6-0.1,0.8,0.2c0.2,0.3,0.5,1.1-0.2,3.1c-1.3,3.5-4,6.8-7.8,9.4c-1.5,1.1-3.1,2.1-4.8,3l-5.6,3
	c-3.2,1.8-4.7,3-2.9,2.5c2.7-0.8,0.7,0.6-4.1,3.1l-4.2,2.1l-4.7,2c-1.7,0.6-3.7,1.1-5.7,1.7c-2.2,0.4-4.4,0.8-6.6,1
	c-10.5,0.9-21.1-1-29.6-5.2c-1.7-1-3.9-1.8-4.9-2.5c-4.2-2.4-7.5-5.5-9.5-8.9c-3.1-4.6-3.4-10-3.2-14.6c0-1.7,0.1-3.9,0.2-4.8
	c0.7-5.9,0.7-5.8,0.1-14.3l-2,12.9c-0.3,1.5-0.6,1.1-0.9,1.6l0-16.6l0.2-5.5l-0.4-68.6l-0.1-2.8c0,0.1-0.2,0.2-0.2,0.3l-0.2,54.8
	l0.1,16.9c0,11.1-0.3,14.3-1.4,12.9l0.5,15.9c0,3.4,0.7,6.7,1.9,10c6.5,15.5,29.6,23.8,49.4,21.5c7.9-0.9,15.4-3,21.9-6.1l16.3-7.4
	c5.1-2.4,9.4-5.5,12.6-9.1c3.4-4,5.6-8.3,6.4-12.9c0.5-2.6,0.8-3.3,1.3-2c0.7,1.9,1.3,3,1.8,4.7C121.9,321,118.2,325,120.3,323.7z
	 M107.5,218.6c-0.2,1.7-0.5,3.1-0.6,5l0,17.2l0.1,10.2l-0.1,6.1l0.3,0.8l0.6-37.4L107.5,218.6z M13.7,199.8c1.1-3.5,2.9-6.8,5.5-9.9
	c3.6-4.3,8.6-8,14.6-10.8c-4.4,1.9-8.3,4.2-11.5,7.1l-0.3,0.2c0.7-0.8,1.6-1.5,2.6-2.2c1.6-1.3,3.5-2.5,5.5-3.5
	c-4.1,2-7.6,4.5-10.4,7.4C16.6,191.6,14.5,195.6,13.7,199.8L13.7,199.8z M63.9,160.2c-6.3-0.6-12.7-0.5-19,0.1
	c-19,2.8-35.3,11-44.6,22.6c-1.2,1.5-2.3,3-3.1,4.6c-0.8,2-0.7,2.4,0.1,1.4c1.5-2,3.2-4,5-5.9c7.2-7.5,17.4-13.5,29.5-17.2
	c7.6-2.4,15.8-3.7,24.1-3.8c8.4-0.2,16.8,0.7,24.6,2.9c3.9,1,7.6,2.3,11.1,3.8c3.4,1.4,5.3,2.4,8,3.6l7.6,3.4l3.8,1.7
	c1.3,0.6,3.3,1.5,4.8,2.4c10.7,6,14.1,10.6,16.1,12.2c4,3.5,7.4,7.3,10,11.3c0.4,0.6-0.4-3-2-6c-4.1-8.1-11.6-15.1-21.6-20.3
	c-1.3-0.7-2.6-1.3-4-1.9l-2.8-1.2l-5.6-2.5L94.2,166c-4.9-2.1-10.1-3.7-15.6-4.8c-1.9-0.3-0.3,0.1,4,1.5c2.5,0.8,0.3,0.4,0.2,0.6
	C76.7,161.4,67.6,160.4,63.9,160.2L63.9,160.2z M2.9,294.4c0-6.3-0.2-14.2,0-20.9c0.2-9.7-0.2-16.2-0.4-24l-0.8-37.4
	c-0.2-1-0.6-3.3-1-4.5c-0.2-0.6-0.4,0.1-0.6,1.3c-0.5,3.9-0.9,11-1.5,11.9c-1.1,1.8-0.7,12.3-0.9,19.4c-0.2,4-0.1,7.9,0.6,11.9
	c0.5,2.5,1,6.4,1.5,10.8C0,264.7,0.1,271.3,0,273c-0.8,11.6-0.2,23.3-0.2,32.8l1.6-6L2.9,294.4z M140.7,281.3c0,2.4,0.1,5.7,0.3,7.5
	c0.9,11.2,2.4,6.2,3.1-7.8c0.7-15,0.4-31,0.5-46.5V222l-0.3-1.4l-2.8,39.3l0.1,2.4l-0.7-2.4L140.7,281.3z M301,466.2
	c-35.7,15.2-75.3,25.8-116.7,31l2.6-0.4c-6.2,0.7-12.3,1.4-18.5,1.9c-10.6,0.9-21,1.8-32,1.6c-11.1-0.4-22.4-3.9-29.1-10.2
	c-3.4-3.2-5.3-7-5.4-10.9l0-43.3c0.1-14.7,0.1-18.9-0.4-17.2c-0.9,3-1.1-13.4-1.3-24.8l-0.6-36c31.3-0.2,64-0.3,96.6-0.5
	c38.2-0.2,78.7-0.3,115.4-0.5c7.1,0,16.3,0,24.5,0c33.7,0,65.8,0.4,100.7,0.1c4.4,0,15.4,0.1,18,0.3c3,0.2,6,0.4,8.9,0.8
	c6.7,0,14.6,0.1,23.9,0.1l-7.6,0.2c19.5-0.1,36.1-0.1,52.3-0.2c5.8,0,11.6,0,17.5,0.1l22.2,0.1l-20.8,5.4
	c-9.6,2.5-19.3,5.1-29.6,8.2l-2.5,1.2c-10,3.1-20,6.4-34.9,11.5c6.7-2.5,9.5-3.5,7.6-2.8c-0.7-0.1-4.7,0.9-0.6-0.7
	c3.2-1.3,16.3-5.9,25.9-8.9c10.2-3.2,14.7-4.4,17.5-5.6c1.5-0.6,8.7-2.7,15.8-4.8l7.1-2l-7.6,0.1c-3.2,0-6.5,0.1-9.3,0.1
	c-23.1,0.4-15.5,1-16.9,1.5c-0.5,0.2,0.7,0.4,1.4,0.6c1.5,0,7.8,0.1,19.2,0.2c-12.4,0.1-20.9,0.2-31.7,0.4l1.9-0.3
	c-4.9,0-12.2,0-14.2,0l-43.5,1.2c-15.4,0.6,18.1,1.3,44.1,1.3c16.2,0,32.6,0,49.2,0l-2.2-8c-15.8,4-31.2,8.7-46.5,13.7
	c-12.4,4-24.6,8.4-37.4,13c19.5-7.3,39.5-14.2,60-20.4l-0.1-0.1c-6.8,2-13.7,4.1-20.3,6.3L472,380.1c-7.6,2.4-19.7,6.9-35.9,13.4
	c-19.6,7.8-45.6,19.6-59.4,25.4c-5.2,2.2-1.3-0.1-1.5-0.3c-15.4,7.3-30.2,14.6-51,26.2c7.7-5.3,14.5-9.8,22.2-14.7l-10.4,5.2
	c30.3-15.9,14.2-8.9,39.5-21.5c-10.1,4.6-16.9,7.8-25,11.7c7.8-4.3,17.3-9.1,12.1-7.2c-4,1.5,11-6.4,15.9-9.1c1.9-1.1-2.5,0.7-1.5,0
	c2.5-1.7,5.3-3.3,8.3-4.6c13.6-6.1,19.3-9.6,41.7-18.1l10.5-4.1c33.9-13.4,67.3-25,104.6-34.6l7.5,27.5c-2.5,0-5.1,0-7.6,0
	c-25.9,0-55.5-0.1-83.2-0.1c-32.8,0.1-65.2,0.2-98,0.3c-37.8,0-75.9,0-113.9,0c-7.3,0-15.8,0-21.7,0.1c-18.4,0.2-39.5,0.3-59.6,0.2
	c-10.1-0.1-19.9-0.1-29-0.2c-2.3,0-4.5,0-6.7-0.1h-3.2c-0.7,0-0.8,0-0.8,0l0,0l-0.5-0.2c-0.2,0-0.3-0.1-0.5-0.1
	c-0.1,0.2-0.2,0.5-0.2,0.7l-0.2,15.8l0.3-1.2c0.4,4,0.9,6.2,1.1,12.5c0.2,12.7,0.2,26.1-0.3,39.2l-0.4,17.5l-0.2,19.8
	c-0.2-0.1-0.4-0.2-0.6-0.3l-0.6-2v1.9c0,0.5,0,0.4,0,0.6c0,0.2,0.1,0.5,0.2,0.7c0.2,0.5,0.5,1,0.9,1.4c0.9,0.9,2,1.6,3.3,2.3
	c1.3,0.5,2.5,1.1,3.7,1.7c0.4,0.5-3.1-0.1-3.9,0c2.8,1,5.9,1.6,9.1,1.7c0.8,0,1.6,0.1,2.5,0l3.5-0.1l7.4-0.4
	c9.9-0.6,19.7-1.6,29.2-2.8c29.2-3.8,57.6-10,84.5-18.6c5.5-1.5,18.3-6.6,26.4-10c7.9-3.5,14.7-6.3,21.5-9.9
	c-3.7,2.1-7.2,4.3-11.9,6.5c15-6.8,22.6-10.7,9.8-3.1c-3,1.7,0.7,0.1,0.2,0.6s-2.3,2-7.7,4.6l-11.1,5.4c-5,2-11.2,4.7-19.2,7.5
	c-16.5,6.2-37,12.3-30.4,11.2c9.5-2-16,7-53,12.2c-10.2,1.4-20.5,2.6-30.9,3.3c-5.2,0.4-10.4,0.7-15.5,0.9
	c-4.6,0.3-9.2-0.1-13.7-0.9c-3.3-0.7-6.5-1.6-9.5-2.8c-3-1.3-5.6-3-7.4-5.1c-2.7-2.8-3.1-5.9-3-11.2c-0.2-9.7-0.4-20.4-0.3-28.2
	l0.2-8.4c0.7-10.3,0.7-10.1,0.1-25.2l-2,22.8c0,1-0.3,1.9-0.9,2.8l0-29.3l0.2-9.7l-0.1-37c40.1-0.1,80.1-0.1,120.2-0.2
	c2.5,0,4.9,0,7.3-0.1c-0.2-0.1-0.5-0.1-0.7-0.1c-42.5,0-85-0.1-127.5-0.1l0,9l0.1,29.4c0,19.6-0.3,25.2-1.4,22.6l0.5,28l0.2,18
	c0.3,7-1.6,14.3,4.7,19.7c5.6,5.4,14.8,8.4,24,9.2c9.2,0.7,18.8-0.4,27.9-1.1c9.1-0.7,18.2-2,27.2-3.3c14.2-2.2,28.3-4.8,42.1-7.9
	c21.6-5,42.3-11.6,61.7-19.7c7.7-3.1,13.7-6.2,19-8.5l11.7-5.9c5.7-2.8,7.4-3.4,5-1.7c-3.5,2.5-5.1,4-7.9,6.3
	C306.4,463.2,296.8,467.3,301,466.2z M524.2,356.9c-4.2,1-7.9,1.9-12.6,3.4c-13.7,4.2-27.5,8.9-40.9,13.7c-8,2.9-15.8,5.9-23.7,8.9
	l-14.1,5.4l-1.6,0.9c28.6-11.4,58.1-21.7,88.4-30.8L524.2,356.9z M273.5,362.2c13,0.3,41.2,0.3,69-0.1c-10.5,0-19.5,0-28.4,0h-0.7
	c4.3,0,8.6-0.1,21.2-0.2c-14.2-0.1-22.4-0.1-27.4-0.1C295.2,361.9,284.7,362,273.5,362.2L273.5,362.2z M396.1,347.7l-23.3-0.6
	c-24.4,0.2-47.6,0.5-70.6,0.7l-9.2,0.2c-15.3,0.7,22,1.7,61,1.7c43,0.1,86.2,0.1,128.8,0.2c17.9,0,27.5,0,31.4-0.4
	c9-0.7,17.4-1.5,24.1-2.2c1.1-0.1-5.5-0.3-11.1-0.4c-28.4-0.5-61.3-0.2-92.3-0.2c-23.7,0-26.9,0.2-15.5,0.6c3.4,0.1,0.6,0.3,0.7,0.5
	C411.9,347.7,400.8,347.7,396.1,347.7z M95.7,413.8l0-36.9v-21.8c16.9-0.1,31.4-0.2,47.8-0.3c30.8-0.2,62.8-0.3,97.6-0.5
	c2.7-0.1,8.5-0.4,11.9-0.6c1.5-0.1-0.3-0.3-3.5-0.4c-10.1-0.3-28.6-0.6-31-1c-4.8-0.7-32-0.5-50.6-0.6c-15.8-0.1-24.8,0-31,0.4
	l-5.5,0.3l-7.5,0.2c-7.4,0.1-15.8,0.3-24.8,0.5l-6.4,0.1l0.1,23c-0.8,20.5-0.2,41-0.2,57.7l1.6-10.6L95.7,413.8z M397.9,430.3
	c-5,2.2-11.9,5.7-15.5,7.6c-11.4,5.9-14.1,7.9-10.5,6.6s13.6-5.9,28.7-12.6c31.9-14.1,67-28.6,102.3-40.5c9.3-3.2,18.9-6.3,28.5-9.2
	l3.1-1.1c-30.8,8.7-60.7,18.6-89.7,29.7l-5.2,2.2l4.9-2.5C427.5,417.2,412.6,423.6,397.9,430.3L397.9,430.3z M298.2,58.6
	C263,43.8,224,33.5,183.2,28.5l2.6,0.2c-6-0.9-12-1.7-18.1-2.3c-10.3-0.9-21-1.8-31-1.6c-9.8,0.4-19.7,3.5-25.3,8.8
	c-2.8,2.6-4.4,5.8-4.4,9l0,43.3c-0.1,14.7-0.1,18.9,0.4,17.2c0.9-3,1.1,13.4,1.3,24.8l0.6,29.6c28.2-0.2,57.7-0.3,87-0.5
	c38.2-0.2,78.7-0.3,115.4-0.5c7.1,0,16.3,0,24.5,0c33.7,0,65.8,0.4,100.7,0.1c4.4,0,15.4,0.1,18,0.3c3,0.2,6,0.4,8.9,0.8
	c6.7,0,14.6,0.1,23.9,0.1l-7.6,0.2c19.5-0.1,36.1-0.1,52.3-0.2c5.8,0,11.6,0,17.5,0.1l-1.5,5.5c-9.7-2.6-19.5-5.4-29.9-8.7l-3-0.5
	c-10.1-3.1-20.2-6.5-35.3-11.8c6.9,2.3,9.8,3.2,7.8,2.6c-0.2-0.5-3.9-2.1,0.5-0.8l26.4,8.4c10.3,3.2,14.8,4.4,18,5.1l16.3,4.1
	l0.5-1.9c-3.2,0.1-6.5,0.1-9.3,0.1c-23.1,0.4-15.5,1-16.9,1.5c-0.5,0.2,0.7,0.4,1.4,0.6l19.2,0.2c-12.4,0.1-20.9,0.2-31.7,0.4
	l1.9-0.3c-4.9,0-12.2,0-14.2,0l-43.5,1.2c-15.4,0.6,18.1,1.3,44.1,1.3c16.2,0,32.6,0,49.2,0.1h33.1l-30.9-8
	c-15.3-4-30.6-8.6-45.5-13.5c-12.2-4-24.2-8.2-36.7-13c19.4,7.1,39.1,13.8,59.3,19.7v-0.1c-6.6-2.1-13.3-4.1-19.8-6.3
	c-13-4.2-22.4-7.6-30.1-10.7l-35-13.6c-19.4-7.6-45.4-18.8-58-25.4c-4.7-2.5-0.3-0.8,0-1.1c-15-7.1-29.6-14.3-49.6-25.5
	c8.9,4,16.7,7.3,25.4,10.9l-9.6-5.1c29.6,15,15.7,6.8,40.6,18.4c-9.6-4.7-15.9-7.8-23.5-11.8c7.9,3.7,17.5,7.9,13.3,5.4
	c-3.2-2,12,4.8,17.4,6.6c2.1,0.8-1.7-1.3-0.5-0.9c3.2,0.9,6.2,2,9,3.3c13.1,5.7,19.7,7.8,40.4,16.8c1.8,0.8,7,2.8,10,4
	c32.7,12.4,64.8,23.7,98.5,32.7L662,175.8L549.8,175c-2.5,0-5.1,0-7.6,0c-25.9,0-55.5-0.1-83.2-0.1c-32.8,0.1-65.2,0.2-98,0.2
	c-37.8,0-75.9,0-113.9,0c-7.3,0-15.8,0-21.7,0.1c-18.4,0.2-39.5,0.3-59.6,0.2c-25.2-0.2-49.2-0.4-67.6-0.5l-14.6-0.1l0.4-44.4
	l-0.3,1.2c-0.4-4-0.9-6.2-1.1-12.6C82.5,106.4,82.5,93,83,79.8l0.4-17.5l0.1-10.5v-5.4c0.1-1.9-0.1-3,0.4-6.9c0,1.1,0.1,2.3,0.3,3.4
	l0.6,2v-1.9l0.2-3c0.3-2,0.8-3.9,1.7-5.8c1.4-3.2,3.6-6.1,6.4-8.8c3.8-3.6,8.5-6.7,14.1-9c8.1-3.3,11.9-3.6,12.7-3.7
	c1.6-0.2-7.2,2.7-8.4,3.7c7.1-2.6,14.9-4.2,23-4.6c1.9-0.1,3.9-0.2,5.7-0.1l4.6,0.1l8.6,0.4c11,0.6,21.9,1.6,32.7,3
	c33.1,4.1,67.2,12,93,21.5c5.9,1.9,20.4,7.3,29.3,11.2c8.1,3.6,15.9,7.5,23.3,11.6c-4.4-2.1-8.6-4.3-14-6.4
	c16.1,8.2,23.5,13.1,8.3,5.7c-3.5-1.7,0.1,0.5-0.8,0.3c-1.2-0.3-3.4-1.3-9.7-3.8l-12.4-5.3c-5.5-2-12.2-4.8-20.8-7.8
	c-17.9-6.5-40.8-10.9-34.4-8.8c9,3.5-18.3-4.5-56.5-9.9c-10.6-1.5-21.3-2.7-32.1-3.5c-5.4-0.4-10.8-0.7-16.3-0.9
	c-6-0.3-12,0.2-17.8,1.3c-4.6,1-8.9,2.5-12.6,4.6c-4,2.1-7.3,4.8-9.7,7.8c-1.8,2.2-2.9,4.6-3.4,7.1c-0.3,2.5-0.3,5-0.2,7.5
	c0.2,9.7,0.4,20.4,0.3,28.2l-0.2,8.4C98.9,94.2,98.9,94,99.6,109l2-22.8c0-1,0.3-1.9,0.9-2.8l0,29.2l-0.2,9.7l0.1,39.7
	c41.4-0.1,82.8-0.1,124.2-0.2l7.3-0.1c-0.2-0.1-0.5-0.1-0.7-0.1c-43.3,0-86.7-0.1-130.1-0.1v-10.1l-0.1-30c0-19.6,0.3-25.2,1.4-22.7
	l-0.5-28l-0.2-18V42.4c0.1-3.5,1.7-7,4.7-9.9c5.8-5.8,15.5-9.1,25.2-10c9.9-0.7,19.2,0.1,28.5,0.7c9.4,0.5,18.4,1.7,27.5,2.8
	c14.4,2,28.6,4.6,42.6,7.7c21.9,5,43,11.6,62.8,19.6c7.8,3.1,14,6.2,19.3,8.5c5.1,2.6,8.9,4.7,11.7,6.2c5.6,3.1,6.7,4,3.6,2.9
	c-4.4-1.7-7.1-2.4-11-3.7C305,60.3,294.9,56.6,298.2,58.6z M536.4,145.8l-11.5-3.9c-13-4-26.3-8.5-39.3-13.1
	c-7.8-2.7-15.4-5.5-23-8.4l-13.5-5.4l-1.9-0.5c27.4,11.2,55.7,21.2,84.8,30.2L536.4,145.8z M273.5,161.8c13,0.3,41.2,0.3,69-0.1
	c-10.5,0-19.5,0-28.4,0h-0.7c4.3,0,8.6-0.1,21.2-0.2c-14.2-0.1-22.4-0.1-27.4-0.1C295.2,161.6,284.7,161.7,273.5,161.8L273.5,161.8z
	 M396.1,147.4l-23.3-0.6c-24.4,0.2-47.6,0.4-70.6,0.7l-9.2,0.2c-15.3,0.7,22,1.7,61,1.7c43,0.1,86.2,0.1,128.8,0.2
	c17.9,0.1,27.5,0,31.4-0.4c9-0.7,17.4-1.5,24.1-2.2c1.1-0.1-5.5-0.3-11.1-0.4c-28.4-0.5-61.3-0.2-92.3-0.2
	c-23.7,0-26.9,0.2-15.5,0.6c3.4,0.1,0.6,0.3,0.7,0.5C411.9,147.4,400.8,147.4,396.1,147.4L396.1,147.4z M113,108l0,36.9v10.1
	c10.8-0.1,20-0.2,30.5-0.3c30.8-0.2,62.8-0.3,97.6-0.5c2.7-0.1,8.5-0.4,11.9-0.6c1.5-0.1-0.3-0.3-3.5-0.4c-10.1-0.3-28.6-0.6-31-1
	c-4.8-0.7-32-0.5-50.6-0.6c-15.8-0.1-24.8,0.1-31,0.4l-11.4,0.5l-7.4,0.5c-0.4,0-1.1,0-2,0.1c-0.1-2.1-0.2-5.6-0.1-7.2
	c0.8-20.5,0.2-41,0.2-57.7l-1.6,10.7L113,108z M377.8,111.3l-16.5-7.6c-12.4-5.7-16.1-7.1-13.1-5.1c3.1,2.1,13,7.5,28.3,14.9
	c32.6,15.7,69.6,30.3,106.5,43c9.8,3.4,20,6.7,30.3,9.8l3.5,0.9c-31.5-10.3-62.1-21.8-91.6-34.6l-5.6-2.2l5.8,1.9
	C408.3,125.2,393.1,118.5,377.8,111.3L377.8,111.3z M101.7,322.8l-0.3-126.1l0.1,2.7l0.3-18.7v-21.6c54,0,108.1,0,162.1,0
	c8.3,0,17,0,25,0c32.5,0.1,41.7,0.1,38.2-0.3c-6.6-0.6,29.6-0.7,54.9-0.9c33.3-0.2,67.9-0.3,103.1-0.5c17.6-0.1,35.3-0.1,53.1-0.2
	h13.4c4.7,0.1,9.4,0.4,14,0.9c9.1,0.8,18.1,2.1,27,3.9c28.2,5.4,55.1,15.4,78.5,27.9c22.6,12.4,42.1,27.2,57.7,43.7
	c16.2,15.2,17.4,35.4,3.1,51.5c-7.3,7.2-13.8,14.4-22.1,20.9c-16.2,13.7-35.4,25.6-56.9,35.4c-3,1.2-7.8,3.5-12.7,5.2l-11.3,3.9
	c-4.2,1.2-8.6,2.3-12.9,3.2c-11.2,3.2-22.8,5.8-34.7,7.6c3.1-0.6,5.7-0.9,11.1-2.2c-14.3,2.8-27.6,4.7-41.3,5c-12.9,0-25.1,0-37.3,0
	c-24.1-0.1-47.8-0.2-74.4-0.3l-4.5,0.4c-16.5,0-33.3,0-58.5-0.1c11.4-0.1,16.1-0.2,12.9-0.1c-0.8-0.3-7.3-0.6-0.1-0.8
	c5.7-0.2,27.7-0.3,43.5-0.3c16.9,0,24.1,0,28.9-0.3c3.6-0.2,25.8-0.4,39.8-0.5c34.4-0.4,23.1-1,25.3-1.5c0.8-0.2-1.1-0.4-2-0.6
	c-2.1,0-11.6-0.1-28.6-0.2c18.5-0.1,31.3-0.2,47.4-0.4l-2.8,0.3c3.6,0,8.2,0,12.2,0c4,0,7.4-0.4,8.8-0.5
	c21.1-2.3,41.5-6.9,60.4-13.7c9.7-3.8,3.9-1.7-9.2,1.9s-33.8,8-52.4,9.4c-5.9,0.4-11.8,0.6-17.7,0.5h-18.5c-12.4,0-24.7,0-37.2,0
	c-24.8,0-49.8,0-74.5,0c-20.4,0-40.8-0.1-62.4-0.1l99.5-0.2v-0.1c-11,0-22.1,0-33-0.1c-21.7,0-37.8,0-51.3-0.3
	c-12.4-0.3-32.8-0.3-60.8-0.3c-33.7,0.1-80.1,0.3-104.2-0.3c-9-0.2-1.5-0.6-1.5-0.9h-94.4l45.4-2.1c-0.4,0-9.7-0.1-18.9-0.1
	c56.3-0.2,28.3-1.1,74.4-1.5l-44.7-0.3c14.7-0.3,32.1-0.5,23.6-1c-6.7-0.4,21.1-0.8,30.3-1.3c3.7-0.2-3.8-0.4-1.8-0.6
	c5.2-0.5,10.4-0.7,15.6-0.6c23.8-0.1,35-0.8,72.5-0.3c3.2,0,12.3,0,17.7,0c61.3-0.3,119.6-0.2,180.5,0.1c9.7,0,19.7,0.1,29.9,0.1
	c10.1-0.1,21.5,0.4,28.9-0.3c18.6-1.6,36.7-5.2,53.7-10.7c20.1-6.3,38.6-14.9,54.6-25.2c16.1-10.2,30.2-22.6,42-35.2
	c4.9-5.5,6.9-12,5.7-18.4c-0.6-3.2-2-6.2-4.2-9.1c-0.5-0.7-1.2-1.4-1.7-2.1c-0.6-0.7-1.8-1.8-2.6-2.7l-5.5-5.5
	c-14.7-14.5-32.8-27.3-53.7-37.8c-4.1-2.1-8.3-4.1-12.7-5.9c-3.9-1.7-8-3.3-12.1-4.7c-11.5-4.1-23.7-7.4-36.2-9.9
	c-12.9-2.5-26.5-4.4-38.5-4.2c-30.1-0.1-58.7-0.2-80.6-0.5c-18.3-0.1-52-0.2-78.7-0.4l2.7,0.2c-8.9,0.2-13.7,0.6-27.8,0.7
	c-28,0.2-57.8,0.1-86.8-0.2l-86-0.4l8.7-0.8c-89.4-0.1-53.4-1-49.6-1.8c-7.6,0-15,0-22.2,0.1c-1.6,0-3.1,0-4.7,0.1l0.1,23.7
	c0,32.2,0.1,66.5-0.7,94.6l0,32.2l-0.5,27.7l-0.7-16.2c-0.5,19.3-1.1,29.2-2,11.2c-0.2-4.1-0.5,0.5-0.8-0.3
	c-0.7-2.3-1.5-10.4-1.7-48.2c-0.1-19.7-1.7-42.8-2.5-35.9c-1.1,10.1-2.2-19-2.1-57.6l0-38.6c8.7,0,17.3,0,25.8,0
	c6.9,0,14.1-0.2,18.5-0.3c15.9-0.4,76.7-0.9,111-0.8c6.7,0,15.2,0.1,18.6,0.1c22.8,0.5,22.5,0.5,55.8,0.1c-17.7-0.5-35.5-1-50.4-1.4
	c-2.1,0-4.2-0.2-6.3-0.6h64.6c7.4,0.1,14.6,0.1,21.5,0.2l133.7-0.1h33.4c5.5,0,11.2-0.1,16.6,0c5.5,0.2,10.9,0.7,16.3,1.3
	c21.8,2.7,42.7,7.7,62.1,14.9c3.3,1.2,6.5,2.2,9.4,3.6c-0.2-0.2-0.5-0.3-0.8-0.5c-15.1-6.1-31.3-11-48.2-14.6
	c-16.9-3.5-34.3-5.7-52.1-5.1c-35.6,0-71.2,0-106.7-0.1c-21.8,0-43.7,0-65.7,0.1c-43.3,0-55.7-0.2-50.1-0.9
	c-24.1,0.1-42.7,0.2-61.9,0.4c-12.9,0-26.4,0.1-39.9,0.1c-39,0.1-75.4,0.3-110.2,0.4l0.6,40.7l0.2,44.2l0.3,69.4
	c0.2,36.3-0.2,50.4-1.2,43.5c-0.8-5.1-1.6-7.8-2.5-12.1C102.9,329.8,102.5,318.4,101.7,322.8z M456.2,350.7
	c-6.5-0.1-12.1-0.4-19.6-0.4c-21.9,0-44.6,0-66.9,0c-13.3,0-26.5,0-39.8,0.1c-7.9,0-15.9-0.1-23.9-0.1l-3,0.2l145.9,0.3L456.2,350.7
	z M687.1,206.6c9.8,7,18.9,14.5,27.1,22.4c4.8,5.1,11.3,10.2,14.8,16.3c3.9,6.3,5.4,13.1,4.4,19.9c1.4-9.4-1.9-18.8-9.3-26.7
	l-0.5-0.6c2,2.1,3.8,4.2,5.2,6.5c2.7,4.1,4.4,8.5,5,13c-2-14.2-11.2-20.7-15-24.8l-7.4-7.3c-2.6-2.3-5.3-4.4-7.9-6.5
	c-2.6-2.1-5.1-4.3-7.9-6.3L687.1,206.6z M709.7,320.1c5.7-3.9,9.7-7.6,13.7-10.6c3.6-2.8,7-5.7,10.1-8.7l8-8.1
	c1.5-1.5,2.9-3.1,4.2-4.7c1.4-1.8,2.6-3.6,3.7-5.4c8.8-14.7,8.1-31.2-2-45.4c-1.2-1.7-2.5-3.4-4-5c-1.5-1.7-2.7-2.7-4-4l-7.8-7.6
	c-2.7-2.7-5.7-5.4-9-7.8c-4-3.1-4.8-3.4-3.1-1.6s6.3,5.4,11.3,11.1l8.9,9.3c4.1,4.4,7.2,9.2,9.4,14.2c4.9,11.6,4.1,24-2.5,35.3
	c-1.8,3.2-4.1,6.2-6.8,9.1l-7.1,7.1l-7.2,7.1l-8,6.7c-2.7,2.2-5.3,4.5-8.1,6.7l-8.9,6.3c-5.7,4.3-12.4,8-18.8,11.9
	c-26.3,15.1-57.2,26.1-90.4,32.4c-11.1,2-22.3,3.4-33.7,4.2c-2.3,0.1-4,0.2-6.6,0.3c-1.6,0-3,0-4.3,0.1l-6,0.2
	c-13.5,0.7-25.9,1.5-36.1,2.2c-1.7,0.1,8.1,0.3,16.6,0.4c5.3,0,10.7,0.1,16.2,0.1c2.7,0,5.5,0,8.3,0h4.2h2.8l2.7-0.1
	c13-0.6,25.9-2.2,38.5-4.6c24.8-4.9,48.3-12.3,69.6-22.2c8-3.7,13.8-7,18.3-9.2l8.2-5.1c2.7-1.8,0-0.4-7.1,3.6
	c-4.3,2.4-1.1,0.2-1.2,0.1c4.9-3,10.8-6.4,15.9-9.7L709.7,320.1z M337.8,154.9c24.5,0,55.5,0,81.5,0c37.8,0.2,62.9-0.1,93.7-0.3
	c11.5,0,23.1-0.1,34.9-0.1c13-0.1,25.3,1.4,37.6,3.4c25.4,4.3,49.4,11.6,71.2,21.5c3.8,1.4,11,5,15.4,6.8c2,0.9,0-0.4-4-2.6
	c-5.9-3.5-15.3-7.7-23.5-11.3l-17.2-6.7c-1.6-0.7-5.3-2-10.4-3.6c-5.2-1.3-11.6-3.3-19.1-4.8c-14.9-3.1-32.3-5.8-48.6-5.9
	c-23.5-0.1-37,0.1-46.2,0.4c-9.7,0.3-24.8,0.7-42.3,1c-7.1,0.1-32.8,0.2-39.6,0.1c-45.3-0.5-90.8-0.1-127.7-0.1l23.6,1.1
	L337.8,154.9z M211.8,373.1c-9.2,0.1-22.1,0.1-29.2,0.2c-43.9,0.6-24.5,1.7,30.4,2.1c58.4,0.5,120.9,0.2,181.3,0.4
	c16,0,32.5,0,48.7,0l5.4-0.2l-153-1.9l-9.4,0.1l9.4-0.5C265.8,373.2,239,373.2,211.8,373.1z M547.2,297.4l-0.3-38.3l0.1,0.8
	c0.1-1.9,0.3-3.8,0.3-5.7v-38.7c-0.1-1.8,0-3.6,0.4-5.4c0.7-2.4,2.2-4.8,4.3-6.8c1.1-1.1,1.5-1.4,0.8-1.2c-1.1,0.4,0.2-1.2,3.4-2.9
	c3.7-2,8.2-3.2,12.9-3.6c5.6-0.2,11.2,0.1,16.6,0.9c5.4,0.7,10.8,1.7,16,2.9c10.6,2.5,20.7,5.9,30,10.2
	c15.1,6.7,28.5,16.2,38.6,25.5c2,1.8,4.2,4.3,6.3,6.5c2.4,2.3,4.4,4.8,5.9,7.4c1.6,2.7,2.5,5.6,3,8.5c0.8,5.9-0.7,11.9-4.3,17.3
	c-1.3,1.8-2.9,3.5-4.8,5c-1,0.7-2,1.4-3.2,2c-2,2.1-4.2,4.1-6.6,6.1l1.8-2l-7.5,6.9l-7.6,5.8c-5.4,3.7-11.3,7.2-17.5,10.3l-0.8,0.9
	c-4.9,2.4-10.1,4.7-15.4,6.7l3.4-1.4c-0.5-0.2-2.4,0.2-0.7-0.7c1.5-0.6,7-3.4,11-5.3c4-2.2,5.8-3.2,6.7-4l8.5-6
	c6.8-5.5,3.7-4.2,3.6-4.8c0-0.2-0.6-0.1-1.1-0.1c-1.9,1.4-4,2.8-6.2,4c3.9-2.6,6.1-4.8,9.3-7.2l-0.2,0.6c1.5-1,2.8-2.2,4-3.3
	l5.6-5.9l4.1-5.5c2.8-4.2-5.4,4.1-12.7,10c-9,7.6-19.6,14.3-31.5,19.8c-2.4,1.2-4.9,2.2-7.5,3.2c-2.6,1.1-5.3,2-8.1,2.8
	c8.6-2.8,16.7-6.4,24-10.6l-0.1-0.1c-2.5,1.4-5,2.6-7.7,3.8c-4,1.9-8.3,3.6-12.8,4.9c-3.4,0.8-8.6,2.6-16,4.4
	c-4.9,1.2-10,2.1-15.1,2.8c-2.4,0.3-4.8,0.5-7.2,0.5c-1.5,0.1-2.9-0.1-4.3-0.5c-1.5-0.5,0-0.6,0-0.9c-5.4-0.9-9.2-4.1-9.2-7.9
	c0.9,1.6,2.7,2.8,5,3.6c-0.4-0.4-0.7-0.9-0.9-1.4c1.6,2,3,2,3.6,2.1c1.1,0,2.3,0,3.4,0.1c-1.3-0.2-2.4-0.7-3.2-1.4
	c1.2,0.4,2.5,0.5,2.3-0.1c0-0.4,1.6-0.5,1.9-1c0.1-0.1-0.1-0.4,0-0.6s0.1-0.2,0-0.4c0.6-0.2,1.2-0.3,1.9-0.4
	c5.2-0.6,7.8-1.5,16.8-2.9c1.4-0.3,2.8-0.6,4.2-1c24.5-6.9,45.1-18.8,58.9-34.2l2.7-2.8c0.6-0.6,1.1-1.2,1.5-1.9
	c0.7-1.1,1.2-2.4,1.5-3.6c0.5-2.5,0-5-1.4-7.3c-0.4-0.7-0.9-1.3-1.4-1.9l-3.1-3.2c-1.9-2.2-4.1-4.3-6.4-6.4
	c-4.4-4.1-9.3-7.9-14.6-11.4c-2.1-1.3-4.4-2.9-6.3-3.8c-11.3-6-23.8-10.8-37.1-14.4c-2.8-0.7-5.6-1.3-8.5-1.7
	c-1.7-0.3-3.3-0.4-5-0.6l-3.3-0.3v0.2c-0.1,0.2-0.1,0.5,0,0.7c0,0.2,0.2-0.1-0.4,0.2c-0.4,4.2-0.4,11.1-0.6,17.6l-1.2-1.8
	c-0.2,18.3-1.5,10.9-2.6,10.2l0.3,19.7c0,9.8,0.1,20.2-0.7,28.7c-0.2,1.9,0,6.7,0,9.8l-0.5,8.4l-0.7-4.9c-0.5,5.9-1.1,8.9-2,3.4
	c-0.2-1.2-0.5,0.2-0.8-0.1c-0.7-0.7-1.5-3.2-1.7-14.6c-0.1-6-1.7-13-2.5-10.9c-1.1,3.1-2.2-5.8-2.1-17.5l0-19.5
	c0-1.3-0.2-2.5-0.5-3.8c-0.6-3.3-1.3-15.7-1.1-22.7v-2.1c0.1-0.6,0.1-1,0.2-1.3c0.5-1.2,1.2-2.4,2.1-3.5c1-1.5,2.4-2.9,4.2-4.1
	c-3.7,1.5-6.5,3.8-8,6.5c-0.5,1-0.8,0.7-1.1,1c0.6-4.1,4-7.7,9.1-9.9c1.7-0.7,3.6-1.2,5.5-1.4c5.8-1.1,12.6,0,19.1,0.8
	c6.5,1,12.8,2.4,18.9,4.1c12.4,3.5,23.8,8.2,33.9,14.1c0.9,0.4,1.7,1,2.5,1.4c0-0.1,0-0.2-0.1-0.2c-15.8-9.6-35.1-17-56-20
	c-6.4-0.8-13.1-1.8-19-0.6c-4,0.8-7.5,2.4-10.3,4.5c-1.5,1.1-2,1.4-2.1,0.6c-4,4.3-3.1,8.4-3,12.2l0.2,8.2
	c0.1,12.8,0.6,24.2,1.1,35.5c0.2,3.8,0.1,8.9,0.2,13.4l0.3,21.1c0.2,11-0.2,15.3-1.2,13.2c-0.7-1.3-1.5-2.5-2.5-3.7
	C548.4,299.5,548,296,547.2,297.4z M627.7,296.6c-1.5,0.6-3,1.2-4.4,1.9c-4.8,2.4-9.8,4.6-15,6.5c-3.1,1.1-6.2,2.2-9.5,3.1
	c-1.9,0.5-3.9,1.1-5.9,1.4l-0.7,0.4c12.4-2.8,23.9-7,34.1-12.4L627.7,296.6z M653.3,229.2c3.7,3.1,11.3,9.8,18.3,16.8l-6.9-7.2
	l-0.1-0.2l5.3,5.3c-3.3-3.7-5.2-5.9-6.7-7C660.2,234.2,656.9,231.6,653.3,229.2z M699.5,261c0.3-3.5-0.1-7.1-1-10.5
	c-1.1-2.7-2.6-5.2-4.4-7.7c-0.8-1.2-2-2.5-2.9-3.4l-2.5-2.5c-3.2-3.3-6.6-6.5-10.2-9.6c-1.2-1-2.5-2-3-2.4c-2.8-1.8-1.5-0.1,1.8,3.4
	c1.7,1.7,3.8,3.9,5.9,6.5l3.5,3.9l1.9,2l2.2,2.7c6,8.4,7.5,18,4.1,27c-0.8,2.2-2,4.4-3.4,6.5c-1.3,1.9-2.8,3.8-4.6,5.5
	c-3,3-5.6,6-8.8,8.9c-5.4,4.8-8.2,7.4-9.3,8.5c-2.2,2.8-4.2,5.4-5.8,7.6c-0.2,0.4,2.3-1.1,4.3-2.5c5.5-3.7,10.5-7.7,14.9-11.9
	c2.4-2.1,4.3-4.5,6.5-6.8l3.1-3.3c1.3-1.5,2.5-3,3.5-4.6c2-2.9,3.4-6,4.1-9.2c0.1-1.1-0.3-0.1-1.5,2.3c-0.8,1.5-0.6,0.2-0.8,0.2
	C698.7,268.2,699.4,264.6,699.5,261z M551.7,197.4c4.3-2.5,9.6-4.2,15.3-4.7c6.4-0.6,11,0.1,15.2,0.6c10.1,1.3,19.9,3.2,29.4,5.9
	c14.5,4.3,27.9,10.1,39.5,17.4c1.1,0.5,3.4,1.6,4.8,2.2c0.7,0.3,0.2-0.3-0.8-1.1c-3.1-2.6-9.6-6.9-10.4-7.6
	c-1.1-1.6-12.1-7.1-20.3-10.1c-4.4-1.9-9.2-3.3-14.2-4.3c-3.2-0.5-8.1-1.5-13.8-2.3c-2.3-0.4-10.8-1.7-13.1-2
	c-4.1-0.6-8.3-1-12.5-1.1c-5.2,0-10.4,0.9-15,2.5c-8.5,3-14.7,8.4-17,14.7c1.3-2.3,3.2-4.4,5.7-6.2
	C546.6,199.7,549.1,198.4,551.7,197.4L551.7,197.4z M569.2,335.4c-5.4-0.2-10.7-1.1-15.7-2.6c-3.6-1.2-7.1-2.6-10.3-4.3
	c-1.6-0.8-1.8-0.7-0.8,0.3c2.2,1.9,4.9,3.5,8,4.8c5.8,2.5,12.4,3.9,19.3,4.2c3.4,0.1,6.8,0,10.2-0.2c2.8-0.2,5.6-0.5,8.3-0.9
	c5.4-0.7,10.8-1.6,16-2.8c10.3-2.4,20.2-5.5,29.5-9.3c4.9-2,9.6-4.2,14.1-6.6l1.3-0.9c-14.6,7.2-31,12.4-48.4,15.5l-3.1,0.8
	c0.8-0.3,1.6-0.6,3-1.1c-4.8,1-9.7,1.8-14.7,2.4c-2.4,0.3-4.9,0.5-7.4,0.7C575.3,335.5,572.2,335.6,569.2,335.4L569.2,335.4z
	 M176,156.6l-0.3-13.8l0.1,0.3c0.1-0.7,0.3-1.4,0.3-2.1c0-4.6,0-9.3,0-14c0-0.6,0-1.3,0-1.8c0.1-2.4,0.1-3.1-0.4-2.8
	c-0.9,0.5-1.1-2.2-1.3-4.1c-0.7-4.9-1-10.2-1.3-15.5c-0.3-4.2-0.3-8.7-0.8-12.7c-0.1-0.8,0-1.8,0-2.7c0-3.7,0.5-7.3,0.2-11.1
	c0-0.7,0.1-1.3,0.4-2c0.3-0.4,0.7-0.7,1.2-1l0.2-2.6l0.4,0.8c-0.1-2.2-0.3-4-0.3-5.8c0-1.8,0.2-3.5,0.4-5.5l-0.6-0.3l0.1-4.3l0.2,1
	c0.5-0.1,0.9-0.5,1.2,0c0.3,1.1,0.5,2.1,0.5,3.2c0,1.2,0,1.8,0.4,2.1c0.4,1,0.7,1.9,0.8,2.9c0.6,2.5,1.5,1.7,2.3,1.9
	c0.3,0.1,0.6-0.1,0.9-0.2l0.4-2.1l0.5,3.5l-0.5-0.2c0,0.5,0,1.3,0,1.6c0.6,1.7,1.1,3.5,1.7,4.8c0.8,1.7,1.9-2,2-4.9
	c0.1-3.6,0-7.3,0.1-11c0-1.5,0-3,0.2-4.6l0.3,7.3c0.1,0,0.1,0,0.2,0c0-0.8,0.1-1.6,0.1-2.4c-0.1-1.3,0.1-2.5,0.5-3.8
	c0.4-1.5,0.6-3,0.4-4.5c-0.1-2.5-0.5-5.9,0.4-7.7c0.3-0.7,0.9-0.1,1.3-0.1v-7l3.2,3.3l0.2-1.4c0.3,4.2,1.7,2.1,2.2,5.5l0.5-3.3
	c0.4,1.1,0.7,2.4,1.5,1.7c0.7-0.6,1.2,1.6,1.9,2.2c0.3,0.3,0.6-0.3,0.9-0.1c0.6,0.3,0.9,0.7,1,1.2c0.1,1.8,1.2,2.6,0.5,5.3
	c-0.1,0.4-0.1,0.9,0,1.3c0.3,4.4,0.3,8.9-0.2,13.3c-0.3,2.8-0.2,6.1-0.2,9.2c0,3.6,0.3,7.2,0.4,10.8c0,4.2,0,8.4,0,12.6
	c0,0.8,0,1.7,0.1,2.4c0.6,4.2,0.5,8.4-0.4,12.5c-0.4,1.3-0.4,3.8-0.5,5.8l0.3-0.2c0.5,0.6,0.9,1.3,1.1,2.1c0.3,2.1,0.2,4.3-0.3,6.4
	c-0.4,1.5-0.4,4-0.6,6.4l-1.2-0.6c-0.2,6.6-1.5,3.9-2.6,3.7c0.1,2.5,0.3,4.8,0.3,7.1c0.1,3.5-0.1,6.9-0.7,10.4c-0.2,0.7,0,2.4,0,3.5
	c0,1.1-0.4,2-0.5,3l-0.7-1.8c-0.5,2.1-1.1,3.2-2,1.2c-0.2-0.4-0.5,0.1-0.8,0c-0.7-0.3-1.5-1.1-1.7-5.3c-0.1-2.2-1.7-4.7-2.5-3.9
	c-1.1,1.1-2.2-2.1-2.1-6.3c0-2.3,0-4.7,0-7c0-0.5-0.2-0.9-0.5-1.4c-0.9-2.7-1.3-5.4-1.1-8.2c0-0.5,0.1-0.9,0.2-1.4
	c0.7-1.7,0.7-1.7,0.1-4.1c-0.7,1.3-1.4,2.6-2,3.7c-0.3,0.4-0.6,0.3-0.9,0.5c0-1.6,0-3.2,0-4.8c0-0.6,0.2-1.1,0.2-1.6
	c-0.1-6.6-0.2-13.2-0.4-19.8c0-0.3,0-0.5-0.1-0.8c0,0-0.2,0-0.2,0.1c-0.1,5.2-0.2,10.5-0.2,15.8c0,1.6,0.1,3.2,0.1,4.8
	c0,3.2-0.3,4.1-1.4,3.7c0.2,1.8,0.4,3.2,0.5,4.6c0.1,1,0.2,2,0.2,3c0.1,4.6,0.6,8.7,1.1,12.8c0.2,1.4,0.1,3.2,0.2,4.8
	c0.1,2.5,0.1,5.1,0.3,7.6c0.2,4-0.2,5.5-1.2,4.8c-0.8-0.5-1.6-0.9-2.5-1.3C177.2,157.3,176.7,156.1,176,156.6z M194,61.6
	c0.3-0.5,0.5-1,0.6-1.5c0-1.6,0-3.3,0-4.9c0-1-0.1-2-0.1-2.9c0-0.6,0.1-1.2,0.1-1.8l-0.3-0.2L193.8,61L194,61.6z M180.2,94.4
	c0.5-2.5,0.4-5.1-0.2-7.6v3.1v0.1l-0.2-2.3c-0.1,1.6-0.3,2.5-0.2,3C179.7,91.9,180,93.1,180.2,94.4L180.2,94.4z M158.8,80.8
	c-0.2,0.9-0.5,1.7-0.9,2.6l1,7.8c0,0.3,0.1,0.7,0.3,1c1.1,1.7,2.5-2.4,2.5-6.7c0-4.7,0.1-9.5,0.3-14.2c0.1-2,0-3-0.5-3.5
	c-1-0.9-2.1-1.8-3.3-2.7c-0.2-0.1-0.5,0.6-0.6,1.2c-0.7,3.1-0.3,6.8-0.2,10.2c0,2.6,0.3,3,0.9,1.7c0.2-0.4,0.5-0.1,0.7-0.1
	C158.8,79.1,158.9,80.3,158.8,80.8z M170,121.6c0-1.8-0.2-4.1,0-6c0.1-2.3,0-4.6-0.4-6.9c-0.3-3.4-0.5-6.9-0.8-10.8
	c-0.3-0.4-0.6-0.9-1-1.3c-0.2-0.2-0.4,0-0.6,0.4c-0.5,1.1-0.9,3.2-1.5,3.4c-1.1,0.5-0.7,3.5-0.9,5.6c-0.2,1.2,0,2.3,0.6,3.4
	c0.7,1,1.2,2,1.5,3.1c0.2,1,0.3,2,0.2,2.9c-0.8,3.3-0.2,6.7-0.2,9.4c0.6-0.6,1.1-1.2,1.6-1.7S169.4,122.1,170,121.6z M160.8,43.5
	c0-0.7-0.1-1.4-0.3-2.2c-0.9-3.2-2.5-1.8-3.1,2.2c-0.7,4.3-0.4,8.9-0.5,13.4c0,1.2,0,2.4,0,3.6l0.3,0.4l2.8-11.3l-0.1-0.7l0.7,0.7
	C160.6,47.5,160.7,45.5,160.8,43.5L160.8,43.5z M176,482.1l-0.3-13.8l0.1,0.3c0.1-0.7,0.3-1.4,0.3-2c0-4.6,0-9.3,0-14
	c0-0.6,0-1.3,0-1.8c0.1-2.4,0.1-3.1-0.4-2.8c-0.9,0.5-1.1-2.2-1.3-4c-0.7-4.9-1-10.2-1.3-15.5c-0.3-4.2-0.3-8.7-0.8-12.7
	c-0.1-0.8,0-1.8,0-2.7c0-3.7,0.5-7.3,0.2-11.1c0-0.7,0.1-1.3,0.4-2c0.3-0.4,0.7-0.7,1.2-1l0.2-2.6l0.4,0.8c-0.1-2.2-0.3-4-0.3-5.8
	c0-1.8,0.2-3.5,0.4-5.5l-0.6-0.3l0.1-4.3l0.2,1c0.5-0.1,0.9-0.5,1.2,0c0.3,1.1,0.5,2.1,0.5,3.2c0,1.2,0,1.8,0.4,2.1
	c0.4,1,0.7,1.9,0.8,2.9c0.6,2.5,1.5,1.7,2.3,1.9c0.3,0.1,0.6-0.1,0.9-0.1l0.4-2.1l0.5,3.5l-0.5-0.2c0,0.5,0,1.4,0,1.6
	c0.6,1.7,1.1,3.5,1.7,4.8c0.8,1.7,1.9-2,2-4.9c0.1-3.6,0-7.3,0.1-11c0-1.5,0-3,0.2-4.6l0.3,7.4c0.1,0,0.1,0,0.2,0
	c0-0.8,0.1-1.6,0.1-2.4c-0.1-1.3,0.1-2.5,0.5-3.8c0.4-1.5,0.6-3,0.4-4.5c-0.1-2.5-0.5-5.9,0.4-7.7c0.3-0.7,0.9-0.1,1.3-0.1v-7
	l3.2,3.4l0.2-1.4c0.3,4.2,1.7,2.1,2.2,5.5l0.5-3.3c0.4,1.1,0.7,2.4,1.5,1.7c0.7-0.6,1.2,1.6,1.9,2.2c0.3,0.3,0.6-0.3,0.9-0.1
	c0.6,0.3,0.9,0.7,1,1.1c0.1,1.8,1.2,2.6,0.5,5.4c-0.1,0.4-0.1,0.9,0,1.3c0.3,4.4,0.3,8.9-0.2,13.3c-0.3,2.9-0.2,6.1-0.2,9.2
	c0,3.6,0.3,7.2,0.4,10.8c0,4.2,0,8.4,0,12.5c0,0.8,0,1.7,0.1,2.4c0.6,4.2,0.5,8.4-0.4,12.5c-0.4,1.4-0.4,3.8-0.5,5.8l0.3-0.2
	c0.5,0.6,0.9,1.3,1.1,2c0.3,2.1,0.2,4.3-0.3,6.4c-0.4,1.5-0.4,4-0.6,6.4l-1.2-0.6c-0.2,6.6-1.5,3.9-2.6,3.7c0.1,2.5,0.3,4.8,0.3,7.1
	c0.1,3.5-0.1,6.9-0.7,10.4c-0.2,0.7,0,2.4,0,3.5s-0.4,2-0.5,3l-0.7-1.8c-0.5,2.1-1.1,3.2-2,1.2c-0.2-0.5-0.5,0.1-0.8,0
	c-0.7-0.3-1.5-1.1-1.7-5.3c-0.1-2.2-1.7-4.7-2.5-3.9c-1.1,1.1-2.2-2.1-2.1-6.3c0-2.3,0-4.7,0-7c0-0.5-0.2-0.9-0.5-1.4
	c-0.9-2.7-1.3-5.4-1.1-8.2c0-0.5,0.1-0.9,0.2-1.4c0.7-1.7,0.7-1.7,0.1-4.1c-0.7,1.3-1.4,2.6-2,3.7c-0.3,0.4-0.6,0.3-0.9,0.5
	c0-1.6,0-3.2,0-4.8c0-0.5,0.2-1.1,0.2-1.6c-0.1-6.6-0.2-13.2-0.4-19.8c0-0.3,0-0.5-0.1-0.8c0,0-0.2,0-0.2,0.1
	c-0.1,5.2-0.2,10.5-0.2,15.8c0,1.6,0.1,3.2,0.1,4.9c0,3.2-0.3,4.1-1.4,3.7c0.2,1.8,0.4,3.2,0.5,4.6c0.1,1,0.2,2,0.2,3
	c0.1,4.6,0.6,8.7,1.1,12.8c0.2,1.4,0.1,3.2,0.2,4.8c0.1,2.5,0.1,5.1,0.3,7.6c0.2,4-0.2,5.5-1.2,4.8c-0.8-0.5-1.6-0.9-2.5-1.3
	C177.2,482.9,176.7,481.6,176,482.1z M194,387.1c0.3-0.5,0.5-1,0.6-1.5c0-1.6,0-3.3,0-4.9c0-1-0.1-2-0.1-2.9c0-0.6,0.1-1.2,0.1-1.8
	l-0.3-0.2l-0.5,10.8L194,387.1z M180.2,419.9c0.5-2.5,0.4-5.1-0.2-7.6v3.1v0.1l-0.2-2.3c-0.1,1.6-0.3,2.5-0.2,3
	C179.7,417.5,180,418.6,180.2,419.9L180.2,419.9z M158.8,406.4c-0.2,0.9-0.5,1.7-0.9,2.6l1,7.8c0,0.3,0.1,0.7,0.3,1
	c1.1,1.7,2.5-2.4,2.5-6.7c0-4.7,0.1-9.5,0.3-14.2c0.1-2,0-3-0.5-3.5c-1-0.9-2.1-1.8-3.3-2.7c-0.2-0.1-0.5,0.6-0.6,1.2
	c-0.7,3.1-0.3,6.8-0.2,10.2c0,2.6,0.3,3,0.9,1.7c0.2-0.4,0.5-0.1,0.7-0.1C158.8,404.6,158.9,405.8,158.8,406.4L158.8,406.4z
	 M170,447.1c0-1.8-0.2-4.1,0-6c0.1-2.3,0-4.6-0.4-6.9c-0.3-3.4-0.5-6.9-0.8-10.8c-0.3-0.4-0.6-0.9-1-1.3c-0.2-0.2-0.4,0-0.6,0.4
	c-0.5,1.1-0.9,3.2-1.5,3.4c-1.1,0.5-0.7,3.5-0.9,5.6c-0.2,1.2,0,2.3,0.6,3.4c0.7,1,1.2,2,1.5,3.1c0.2,1,0.3,2,0.2,2.9
	c-0.8,3.3-0.2,6.7-0.2,9.4c0.6-0.6,1.1-1.2,1.6-1.7S169.4,447.6,170,447.1L170,447.1z M160.8,369c0-0.7-0.1-1.4-0.3-2.2
	c-0.9-3.2-2.5-1.8-3.1,2.2c-0.7,4.3-0.4,8.9-0.5,13.4c0,1.2,0,2.4,0,3.6l0.3,0.4l2.8-11.3l-0.1-0.7l0.7,0.7
	C160.6,373,160.7,371,160.8,369z"/>
</svg>
